<svg width="30" height="31" viewBox="0 0 30 31" fill="none" xmlns="http://www.w3.org/2000/svg">
<path d="M22.5004 20.2188C21.9953 20.2186 21.4955 20.3208 21.031 20.5191C20.5665 20.7175 20.1471 21.008 19.798 21.3731L11.1262 16.494C11.2941 15.8631 11.2941 15.1994 11.1262 14.5686L19.798 9.68946C20.4295 10.3442 21.278 10.7461 22.1846 10.8201C23.0912 10.8941 23.9937 10.635 24.7229 10.0914C25.4522 9.54773 25.9583 8.75684 26.1463 7.86688C26.3343 6.97691 26.1913 6.04894 25.7442 5.25679C25.2971 4.46465 24.5766 3.86269 23.7175 3.56369C22.8584 3.26469 21.9198 3.28917 21.0775 3.63253C20.2352 3.9759 19.547 4.61459 19.1418 5.42896C18.7366 6.24333 18.6422 7.17749 18.8764 8.05645L10.2045 12.9356C9.68649 12.3955 9.01874 12.0227 8.28715 11.8652C7.55555 11.7077 6.79357 11.7728 6.09924 12.0519C5.4049 12.3311 4.80996 12.8116 4.39095 13.4316C3.97195 14.0517 3.74805 14.7829 3.74805 15.5313C3.74805 16.2796 3.97195 17.0108 4.39095 17.6309C4.80996 18.2509 5.4049 18.7315 6.09924 19.0106C6.79357 19.2897 7.55555 19.3548 8.28715 19.1973C9.01874 19.0398 9.68649 18.6671 10.2045 18.127L18.8764 23.0061C18.6753 23.763 18.7163 24.5639 18.9936 25.2964C19.2709 26.0289 19.7705 26.6562 20.4224 27.0902C21.0744 27.5243 21.8458 27.7433 22.6286 27.7166C23.4113 27.6899 24.1661 27.4187 24.7869 26.9413C25.4077 26.4638 25.8635 25.8039 26.0902 25.0542C26.3169 24.3045 26.3031 23.5027 26.0509 22.7612C25.7987 22.0197 25.3207 21.3758 24.6839 20.9198C24.0472 20.4639 23.2836 20.2187 22.5004 20.2188Z" fill="#B96001"/>
</svg>
