<svg width="30" height="30" viewBox="0 0 30 30" fill="none" xmlns="http://www.w3.org/2000/svg">
<path d="M22.4999 19.6875C21.9948 19.6873 21.495 19.7895 21.0305 19.9879C20.566 20.1863 20.1466 20.4768 19.7976 20.8418L11.1257 15.9627C11.2937 15.3319 11.2937 14.6681 11.1257 14.0373L19.7976 9.15821C20.429 9.8129 21.2775 10.2149 22.1841 10.2889C23.0907 10.3629 23.9932 10.1038 24.7225 9.56013C25.4517 9.01648 25.9578 8.22559 26.1458 7.33563C26.3338 6.44566 26.1908 5.51769 25.7437 4.72554C25.2966 3.9334 24.5761 3.33144 23.717 3.03244C22.858 2.73344 21.9194 2.75792 21.077 3.10128C20.2347 3.44465 19.5465 4.08334 19.1413 4.89771C18.7361 5.71208 18.6417 6.64624 18.8759 7.5252L10.204 12.4043C9.686 11.8642 9.01825 11.4914 8.28666 11.334C7.55506 11.1765 6.79309 11.2415 6.09875 11.5207C5.40441 11.7998 4.80947 12.2803 4.39047 12.9004C3.97146 13.5204 3.74756 14.2517 3.74756 15C3.74756 15.7484 3.97146 16.4796 4.39047 17.0996C4.80947 17.7197 5.40441 18.2002 6.09875 18.4794C6.79309 18.7585 7.55506 18.8235 8.28666 18.666C9.01825 18.5086 9.686 18.1358 10.204 17.5957L18.8759 22.4748C18.6748 23.2318 18.7158 24.0327 18.9931 24.7652C19.2704 25.4976 19.77 26.1249 20.422 26.559C21.0739 26.993 21.8454 27.212 22.6281 27.1853C23.4108 27.1586 24.1656 26.8875 24.7864 26.41C25.4072 25.9325 25.863 25.2726 26.0897 24.523C26.3164 23.7733 26.3027 22.9715 26.0505 22.23C25.7983 21.4885 25.3202 20.8446 24.6834 20.3886C24.0467 19.9326 23.2831 19.6874 22.4999 19.6875Z" fill="#FFC956"/>
</svg>
