<svg width="30" height="31" viewBox="0 0 30 31" fill="none" xmlns="http://www.w3.org/2000/svg">
<path d="M29.6985 8.27875L26.136 5.53375C25.8939 5.37839 25.6307 5.25867 25.3545 5.17825C25.0796 5.08851 24.7931 5.039 24.504 5.03125H14.25L15.4515 12.5312H24.504C24.75 12.5312 25.0575 12.4757 25.353 12.3842C25.6485 12.2928 25.9335 12.1667 26.1345 12.0302L29.697 9.28225C29.8995 9.14575 30 8.96425 30 8.78125C30 8.59825 29.8995 8.41675 29.6985 8.27875ZM12.75 2.03125H11.25C11.0511 2.03125 10.8603 2.11027 10.7197 2.25092C10.579 2.39157 10.5 2.58234 10.5 2.78125V8.03125H5.496C5.247 8.03125 4.941 8.08675 4.6455 8.17975C4.3485 8.26975 4.065 8.39425 3.864 8.53375L0.3015 11.2787C0.099 11.4152 0 11.5983 0 11.7812C0 11.9628 0.099 12.1442 0.3015 12.2838L3.864 15.0317C4.065 15.1683 4.3485 15.2943 4.6455 15.3843C4.941 15.4758 5.247 15.5312 5.496 15.5312H10.5V28.2812C10.5 28.4802 10.579 28.6709 10.7197 28.8116C10.8603 28.9522 11.0511 29.0312 11.25 29.0312H12.75C12.9489 29.0312 13.1397 28.9522 13.2803 28.8116C13.421 28.6709 13.5 28.4802 13.5 28.2812V2.78125C13.5 2.58234 13.421 2.39157 13.2803 2.25092C13.1397 2.11027 12.9489 2.03125 12.75 2.03125Z" fill="#B96001"/>
</svg>
