<svg width="30" height="31" viewBox="0 0 30 31" fill="none" xmlns="http://www.w3.org/2000/svg">
<path d="M24.9375 26.7812C22.3333 26.7812 19.7604 26.2138 17.2188 25.0788C14.6771 23.9438 12.3646 22.3342 10.2813 20.25C8.19792 18.1658 6.58875 15.8533 5.45375 13.3125C4.31875 10.7717 3.75083 8.19875 3.75 5.59375C3.75 5.21875 3.875 4.90625 4.125 4.65625C4.375 4.40625 4.6875 4.28125 5.0625 4.28125H10.125C10.4167 4.28125 10.6771 4.38042 10.9063 4.57875C11.1354 4.77708 11.2708 5.01125 11.3125 5.28125L12.125 9.65625C12.1667 9.98958 12.1562 10.2708 12.0938 10.5C12.0312 10.7292 11.9167 10.9271 11.75 11.0938L8.71875 14.1562C9.13542 14.9271 9.63 15.6717 10.2025 16.39C10.775 17.1083 11.4054 17.8013 12.0938 18.4688C12.7396 19.1146 13.4167 19.7137 14.125 20.2663C14.8333 20.8188 15.5833 21.3237 16.375 21.7812L19.3125 18.8438C19.5 18.6562 19.745 18.5158 20.0475 18.4225C20.35 18.3292 20.6467 18.3029 20.9375 18.3438L25.25 19.2188C25.5417 19.3021 25.7812 19.4533 25.9688 19.6725C26.1562 19.8917 26.25 20.1362 26.25 20.4062V25.4688C26.25 25.8438 26.125 26.1562 25.875 26.4062C25.625 26.6563 25.3125 26.7812 24.9375 26.7812Z" fill="#B96001"/>
</svg>
