<svg width="22" height="21" viewBox="0 0 22 21" fill="none" xmlns="http://www.w3.org/2000/svg">
<path d="M1 10.4585C1 15.6391 5.477 19.8386 11 19.8386C16.523 19.8386 21 15.6391 21 10.4585C21 5.27785 16.523 1.07837 11 1.07837C5.477 1.07837 1 5.27785 1 10.4585Z" stroke="white" stroke-linecap="round" stroke-linejoin="round"/>
<path d="M11.9999 1.12524C11.9999 1.12524 14.9999 4.83039 14.9999 10.4585C14.9999 16.0865 11.9999 19.7917 11.9999 19.7917M9.99988 19.7917C9.99988 19.7917 6.99988 16.0865 6.99988 10.4585C6.99988 4.83039 9.99988 1.12524 9.99988 1.12524M1.62988 13.7415H20.3699M1.62988 7.17542H20.3699" stroke="white" stroke-linecap="round" stroke-linejoin="round"/>
</svg>
