<svg width="41" height="58" viewBox="0 0 41 58" fill="none" xmlns="http://www.w3.org/2000/svg">
<path d="M39.3906 30.2825L36.3711 41.6759C36.2962 41.9595 36.7019 42.098 36.816 41.8275L39.7637 34.8174C39.943 34.3921 40.5752 34.5208 40.5752 34.9804V46.7094C40.5752 49.2254 38.5351 51.2655 36.0191 51.2655H34.1273L34.6748 52.2139C35.2419 53.1932 34.9046 54.4463 33.9253 55.0133L28.7989 57.9741C28.6473 58.0621 28.4648 57.9285 28.5023 57.7574L29.9493 51.2655L30.2165 50.0678L29.7 51.2655L27.1547 57.1627C26.9445 57.6482 26.2715 57.689 26.0059 57.2327L25.9994 57.2229L23.4835 52.8657C22.9115 51.8749 21.8556 51.2655 20.7117 51.2655H6.02831C2.93227 51.2655 0.422852 48.7561 0.422852 45.6601V27.6688C0.422852 27.3103 0.887257 27.1718 1.08443 27.47L3.558 31.213C3.66229 31.3727 3.90671 31.2423 3.83338 31.0663L2.14523 27.0268C1.00784 24.3104 0.422852 21.392 0.422852 18.4459V5.60383C0.422852 2.50779 2.93064 0 6.02831 0H21.6046C22.0837 0 22.5204 0.277014 22.7257 0.710459L25.1244 5.80263C25.6376 6.89439 24.8425 8.1491 23.6366 8.1491H13.2828C10.7685 8.1491 8.73001 10.1876 8.73001 12.7019V39.5739C8.73001 41.5309 10.3171 43.118 12.2742 43.118H17.8535L17.6515 42.7677C17.0844 41.7884 17.4217 40.5353 18.4027 39.9682L23.5291 37.0074C24.51 36.442 25.7631 36.7793 26.3302 37.7586L29.3871 43.0545C31.028 42.7449 32.2681 41.3044 32.2681 39.5739V11.6933C32.2681 10.1371 31.2659 8.81556 29.8727 8.33975C29.2665 8.1328 28.807 7.63581 28.6587 7.01334L27.1514 0.67787C27.07 0.332417 27.3307 0.00162949 27.6859 0.00162949H35.9556C38.5074 0.00162949 40.5768 2.07109 40.5768 4.62288V21.1948C40.5768 24.2632 40.1792 27.3185 39.3922 30.2841L39.3906 30.2825Z" fill="#343434"/>
</svg>
