<svg width="51" height="51" viewBox="0 0 51 51" fill="none" xmlns="http://www.w3.org/2000/svg">
<g clip-path="url(#clip0_491_629)">
<path d="M50.25 3.65006C46.92 3.59006 43.6 3.56006 40.27 3.54006C40.94 2.70006 41.61 1.86006 42.25 1.00006C42.79 0.28006 41.58 -0.41994 41.04 0.29006C40.22 1.38006 39.37 2.46006 38.52 3.53006C25.93 3.48006 13.33 3.66006 0.749977 3.65006C0.649977 3.65006 0.559977 3.65006 0.469977 3.69006C0.219977 3.77006 0.0699769 3.97006 0.0299769 4.20006C-0.0200231 4.38006 0.00997687 4.57006 0.129977 4.74006C0.149977 4.77006 0.159977 4.80006 0.179977 4.83006C4.64998 9.66006 9.34998 14.0901 14.08 18.6401C16.09 20.5801 18.06 22.5801 20.04 24.5401C20.86 25.3501 22.11 27.0801 23.41 28.2101C23.51 33.0801 23.5 37.9401 23.41 42.8101C21.16 42.8401 10.84 42.8101 11.4 46.9901C11.84 50.2701 20.73 50.2501 22.98 50.3701C26.54 50.5701 30.11 50.3301 33.63 49.7501C35.05 49.5101 39 48.8401 39.47 47.0201C40.51 42.9601 29.98 42.7601 27.47 42.7201C27.55 37.9201 27.56 33.1301 27.47 28.3301C27.94 27.9201 28.38 27.4501 28.74 27.1301C31.27 24.8701 33.67 22.4601 36.02 20.0201C40.92 14.9401 45.62 9.67006 50.76 4.83006C51.21 4.40006 50.85 3.65006 50.27 3.64006L50.25 3.65006ZM2.28998 5.05006C13.98 5.05006 25.7 4.90006 37.4 4.93006C36.24 6.36006 35.07 7.80006 33.9 9.23006C24.64 9.19006 15.37 8.57006 6.10998 9.08006C4.82998 7.75006 3.54998 6.41006 2.28998 5.05006ZM26.03 45.7901C26.01 46.6901 27.41 46.6901 27.43 45.7901C27.44 45.2401 27.44 44.6901 27.45 44.1401C29.8 44.1801 32.16 44.3401 34.46 44.8701C35.04 45.0101 36.8 45.2401 37.18 45.7701C38.29 47.3201 36.05 47.7801 35.14 48.0501C31.38 49.1901 26.89 49.2101 22.98 48.9901C20.49 48.8501 16.39 48.9501 14.16 47.6301C11.81 46.2401 14.97 45.2601 16.45 44.9201C18.72 44.4001 21.07 44.2501 23.4 44.2201C23.39 44.7401 23.4 45.2701 23.38 45.7901C23.36 46.6901 24.76 46.6901 24.78 45.7901C24.91 40.2401 24.92 34.6901 24.82 29.1301C25.02 29.2101 25.22 29.2701 25.42 29.2801C25.64 29.3001 25.86 29.2601 26.08 29.1901C26.18 34.7201 26.17 40.2501 26.04 45.7801L26.03 45.7901ZM31.17 22.9301C30.32 23.7601 29.47 24.5701 28.59 25.3701C26.9 26.9201 25.82 27.6601 23.71 26.2601C21.92 25.0701 20.23 22.8401 18.67 21.3301C16.98 19.7001 15.42 17.9501 13.66 16.3901C11.49 14.4701 9.41998 12.4701 7.39998 10.4201C15.85 10.0501 24.31 10.5501 32.76 10.6301C32 11.5801 31.27 12.5401 30.53 13.5101C28.42 12.4201 25.46 13.5601 24.43 15.6701C23.61 17.3501 24.32 19.2601 25.65 20.4701C25.03 21.3501 24.33 22.1601 23.74 23.0601C23.24 23.8101 24.45 24.5201 24.95 23.7701C25.52 22.9001 26.2 22.1101 26.8 21.2701C26.88 21.3101 26.96 21.3501 27.04 21.3901C28.99 22.2101 31.43 21.3701 32.57 19.6101C33.77 17.7701 33.42 15.3901 31.75 14.2201C32.66 13.0201 33.59 11.8301 34.53 10.6501C37.42 10.6501 40.32 10.5901 43.21 10.4101C41.17 12.5401 39.16 14.7001 37.13 16.8401C35.17 18.9101 33.2 20.9601 31.16 22.9501L31.17 22.9301ZM27.4 20.0001C26.23 19.3901 25.11 17.8701 25.59 16.5401C26.11 15.0701 28.19 14.0601 29.67 14.6601C29.6 14.7501 29.53 14.8401 29.46 14.9301C28.93 15.6601 30.14 16.3601 30.67 15.6401C30.76 15.5201 30.85 15.4101 30.94 15.2901C33.58 16.8201 30.42 21.5701 27.4 20.0101V20.0001ZM44.67 8.91006C41.67 9.13006 38.68 9.22006 35.68 9.23006C36.85 7.80006 38.01 6.37006 39.17 4.94006C42.3 4.95006 45.43 4.98006 48.55 5.03006C47.24 6.30006 45.94 7.59006 44.67 8.91006Z" fill="#2E3936"/>
<path d="M13.1195 12.2C12.4695 11.58 11.4695 12.57 12.1295 13.19C13.2495 14.24 14.2895 15.37 15.2595 16.56C15.8295 17.26 16.8195 16.26 16.2495 15.57C15.2795 14.38 14.2395 13.26 13.1195 12.2Z" fill="#2E3936"/>
<path d="M17.34 16.9202C16.44 16.9202 16.44 18.3202 17.34 18.3202C18.24 18.3202 18.24 16.9202 17.34 16.9202Z" fill="#2E3936"/>
</g>
<defs>
<clipPath id="clip0_491_629">
<rect width="50.95" height="50.46" fill="white"/>
</clipPath>
</defs>
</svg>
