<svg width="51" height="55" viewBox="0 0 51 55" fill="none" xmlns="http://www.w3.org/2000/svg">
<g clip-path="url(#clip0_317_5204)">
<path d="M48.03 24.4201C46.42 23.2801 44.69 23.1401 43.13 23.9301C43.12 21.8601 42.44 20.2801 40.61 19.8401C40.58 19.8401 40.55 19.8401 40.52 19.8401C40.49 19.8401 40.46 19.8201 40.43 19.8201C29.1 19.4401 17.34 18.8801 6.03001 19.8601C2.22001 20.1901 2.59001 22.5101 2.87001 25.9301C3.16001 29.5301 3.87001 33.1401 5.40001 36.4201C6.37001 38.5001 7.64001 40.2801 9.16001 41.7601C5.84001 42.1001 -0.0799909 43.2801 9.10956e-06 46.5501C0.0600091 49.0301 4.49001 49.9001 6.27001 50.1701C6.98001 50.2801 7.70001 50.3701 8.42001 50.4401C10.43 55.0301 18.01 54.1801 22.04 54.2401C25.61 54.2901 29.56 54.4401 33.07 53.7001C35.22 53.2501 36.24 51.7601 37.5 50.0801C40.17 49.7801 44.42 49.2301 45.45 47.1101C47 43.9201 38.64 42.5401 35.06 42.1501C35.4 41.8301 35.73 41.4901 36.05 41.1401C36.13 41.1601 36.2 41.1801 36.3 41.1801C41.84 40.9501 49.56 37.3301 50.22 31.1001C50.47 28.7701 50.03 25.8601 48.02 24.4301L48.03 24.4201ZM42.2 29.6001C42.72 29.3901 43.54 29.0701 44.11 29.2701C44.86 29.5401 45.14 30.3201 45.01 31.0401C44.83 32.0201 43.95 32.9901 43.17 33.5501C42.32 34.1601 41.06 34.8401 39.93 35.0801C40.66 33.5101 41.46 31.5801 42.08 29.6201C42.12 29.6201 42.16 29.6201 42.2 29.6001ZM29.73 52.6401C27.6 52.8001 25.47 52.8601 23.33 52.8601C20.21 52.8601 12.37 53.6101 10.09 50.6001C13.61 50.8501 17.19 50.8001 20.67 50.8701C25.61 50.9601 30.56 50.9101 35.47 50.3201C33.93 51.9101 32.26 52.4601 29.72 52.6401H29.73ZM33.76 43.4401C36.09 43.5501 38.39 44.0301 40.61 44.7301C41.34 44.9601 43.1 45.3001 43.56 45.8801C44.58 47.1601 40.57 48.0601 39.72 48.2501C33.76 49.6001 27.41 49.5801 21.33 49.4801C18.46 49.4301 15.58 49.3501 12.71 49.2401C9.91001 49.1301 5.36001 49.4701 2.91001 47.7601C-0.389991 45.4701 4.51001 44.2301 6.32001 43.7601C7.70001 43.4101 9.13001 43.1201 10.56 43.0701C10.59 43.0701 10.61 43.0601 10.63 43.0501C13.52 45.3001 17.09 46.6101 21.03 46.9501C25.84 47.3601 30.13 46.0801 33.61 43.4001C33.66 43.4101 33.71 43.4401 33.77 43.4401H33.76ZM33.93 41.4001C27.82 47.2001 17.05 47.0301 10.78 41.4901C8.01001 39.0401 6.31001 35.6901 5.34001 32.1701C4.78001 30.1301 4.45001 28.0401 4.27001 25.9401C4.21001 25.2401 3.95001 23.8101 4.13001 23.1301C4.76001 20.7501 7.16001 21.2401 8.85001 21.2001C19.33 20.9401 29.82 20.8901 40.3 21.2301C43.21 22.0301 40.38 30.1401 39.79 31.8401C38.56 35.3701 36.67 38.8101 33.94 41.4101L33.93 41.4001ZM46.39 35.4401C43.95 37.8901 40.65 39.3601 37.24 39.7101C37.65 39.1701 38.05 38.6001 38.42 38.0001C38.63 37.6501 38.91 37.1601 39.21 36.5701C39.23 36.5701 39.24 36.5701 39.25 36.5701C41.79 36.4901 44.94 34.5301 46.04 32.2501C46.56 31.1701 46.6 29.8501 45.85 28.8501C45.03 27.7601 43.73 27.6901 42.53 28.0101C42.74 27.2101 42.9 26.4101 43 25.6601C45.67 23.4001 48.48 26.1701 48.78 28.9401C49.07 31.6201 48.23 33.5701 46.38 35.4301L46.39 35.4401Z" fill="#333333"/>
<path d="M7.22999 24.93C7.15999 24.04 5.75999 24.03 5.82999 24.93C6.11999 28.51 7.20999 31.86 9.11999 34.9C9.59999 35.66 10.81 34.96 10.33 34.19C8.54999 31.35 7.49999 28.26 7.22999 24.92V24.93Z" fill="#333333"/>
<path d="M11.13 36.52C10.23 36.52 10.23 37.92 11.13 37.92C12.03 37.92 12.03 36.52 11.13 36.52Z" fill="#333333"/>
</g>
<defs>
<clipPath id="clip0_317_5204">
<rect width="50.29" height="54.29" fill="white"/>
</clipPath>
</defs>
</svg>
