<svg width="46" height="59" viewBox="0 0 46 59" fill="none" xmlns="http://www.w3.org/2000/svg">
<g clip-path="url(#clip0_401_1638)">
<path d="M13.4855 17.835C13.3455 18.175 13.4955 18.435 13.7355 18.565C13.9255 18.765 14.2155 18.845 14.5055 18.625C16.1155 17.415 17.7355 15.575 17.5255 13.405C17.3155 11.205 11.5755 6.45501 15.5755 4.89501C16.2755 4.62501 16.2355 3.51501 15.3855 3.51501C12.6555 3.51501 9.84551 4.44501 9.67551 7.57502C9.44551 11.755 15.3455 13.245 13.4755 17.835H13.4855ZM12.4655 10.555C10.4855 8.23501 11.0555 6.24501 12.9755 5.38501C12.6455 6.07501 12.5955 6.91501 12.8755 7.92501C13.1655 8.95501 13.8155 9.88501 14.4555 10.725C15.8855 12.615 16.3155 14.335 15.2355 15.945C15.2355 14.965 15.0055 13.975 14.5455 13.135C13.9955 12.115 13.1955 11.425 12.4555 10.555H12.4655Z" fill="white"/>
<path d="M22.7755 17.475C22.6355 17.815 22.7855 18.075 23.0255 18.205C23.2155 18.405 23.5055 18.485 23.7955 18.265C25.7055 16.825 27.6355 14.635 27.3855 12.065C27.1155 9.30499 19.9655 3.61499 25.1355 1.60499C25.8355 1.33499 25.7955 0.234985 24.9455 0.234985C21.6955 0.244985 18.4155 1.30499 18.1755 5.00499C17.8455 10.085 25.0755 11.825 22.7755 17.475ZM21.2955 8.72499C18.6955 5.68499 19.6255 3.07499 22.3355 2.07499C21.7955 2.94499 21.6655 4.02499 22.0555 5.39499C22.3955 6.62499 23.1755 7.72499 23.9355 8.72499C25.8255 11.225 26.3055 13.505 24.6255 15.625C24.6955 14.305 24.4255 12.965 23.8155 11.835C23.1555 10.605 22.1955 9.77499 21.3055 8.73499L21.2955 8.72499Z" fill="white"/>
<path d="M45.3354 38.3449C45.2954 34.9249 45.1654 29.6749 43.0554 26.8249C41.3954 24.5849 38.5154 24.6149 36.0054 24.8949C35.9454 22.8849 35.4054 21.1449 32.9154 20.7849C32.8954 20.7849 32.8754 20.7849 32.8454 20.7849C32.8054 20.7849 32.7754 20.7549 32.7254 20.7549C25.9354 20.4949 19.1454 20.4149 12.3554 20.5549C11.8454 20.5649 11.3154 20.5549 10.7754 20.5549C10.7754 20.5349 10.7754 20.5049 10.7754 20.4849C10.7754 19.5849 9.3754 19.5849 9.3754 20.4849C9.3754 20.4949 9.3754 20.5149 9.3754 20.5249C7.3754 20.4749 5.3054 20.4549 3.5154 20.8649C2.2254 21.1549 1.4054 21.8549 1.0054 23.1449C0.245395 25.5649 0.915395 29.1249 0.925395 31.6449C0.945395 34.7349 0.965395 37.8249 1.0054 40.9149C1.0554 44.9649 0.275395 49.9549 2.2554 53.6649C4.0554 57.0349 6.8054 58.6449 10.5554 58.6549C15.6154 58.6749 20.6654 58.7449 25.7254 58.7649C29.4854 58.7849 31.6254 57.5849 33.8354 54.4249C34.6854 53.2049 35.2054 52.0149 35.5354 50.7949C35.5854 50.8049 35.6254 50.8249 35.6754 50.8349C38.3654 50.9849 41.4054 50.3349 43.2554 48.2049C45.4254 45.7049 45.3654 41.4549 45.3354 38.3549V38.3449ZM36.0454 32.9949C38.9054 33.0049 39.0654 35.8349 39.1354 38.3449C39.2054 40.7249 39.3554 43.8649 36.1554 43.8849C36.2054 40.2549 36.1354 36.6249 36.0454 32.9949ZM34.6854 47.0449C34.4854 51.5249 32.1554 56.9649 27.0454 57.3649C22.4754 57.7249 17.7254 57.2949 13.1454 57.2649C10.9154 57.2449 8.35539 57.5749 6.39539 56.3149C3.85539 54.6749 2.7054 51.8949 2.5554 49.0149C2.2854 43.6549 2.3854 38.2349 2.3454 32.8649C2.3454 31.6249 2.3354 30.3849 2.3254 29.1349C2.3254 27.6849 1.7954 24.8249 2.3654 23.5149C3.0054 22.0549 6.4954 21.8449 9.4054 21.8749C9.4554 24.9149 9.5954 27.9549 9.5854 30.9949C8.2654 31.7849 7.00539 33.6149 5.98539 34.7449C5.83539 34.8149 5.7154 34.9549 5.6854 35.1949C5.4554 36.8749 5.5354 38.6249 5.5354 40.3249C5.5354 41.6749 5.21539 43.5949 5.6754 44.8949C5.79539 45.2149 6.01539 45.3649 6.35539 45.4049C7.71539 45.5649 9.1854 45.4149 10.5454 45.4049C11.7254 45.3849 13.2354 45.5849 14.3854 45.2449C14.7154 45.1449 14.8654 44.8849 14.8954 44.5649C15.1954 42.0049 15.3154 38.9649 15.0554 36.4049C14.9654 35.5149 14.8054 35.2949 14.1654 34.5849C13.1954 33.5149 12.1454 32.1849 10.9854 31.2449C10.9854 31.2449 10.9854 31.2349 10.9854 31.2249C11.0054 28.1149 10.8554 25.0049 10.8054 21.8949C11.7454 21.9249 12.5354 21.9549 13.0154 21.9449C19.5654 21.8149 26.1054 21.9049 32.6454 22.1549C35.2454 22.6249 34.4754 26.0449 34.5154 27.8849C34.5554 29.9249 34.6154 31.9649 34.6654 34.0049C34.7654 38.3449 34.8754 42.7049 34.6854 47.0449ZM13.4954 44.5049C13.4754 44.3949 13.4954 44.3249 13.5154 44.2649C13.5054 44.3549 13.4854 44.4349 13.4954 44.5049ZM13.5754 42.0549C13.5754 42.4549 13.3954 43.3549 13.4754 43.8549C12.5054 43.5149 10.1654 43.9949 9.2254 44.0049C8.5954 44.0049 7.71539 43.8649 7.0954 44.0049C7.3454 43.0149 6.91539 40.4849 6.9254 39.7549C6.9254 38.4149 6.8554 37.0049 7.0154 35.6649C7.6854 34.8749 9.7154 32.3449 10.0754 32.3749C10.5454 32.4149 11.8554 34.1849 12.2154 34.5649C13.4054 35.7949 13.6554 35.6749 13.6454 37.2549C13.6454 38.8549 13.6054 40.4549 13.5654 42.0449L13.5754 42.0549ZM43.1054 45.5149C41.8754 48.5749 38.8754 49.5549 35.8354 49.4249C36.0454 48.1349 36.1054 46.7749 36.1454 45.2949C39.8954 45.3349 40.6154 42.1049 40.5554 38.8249C40.4854 35.2049 40.1854 31.4949 36.0154 31.6049C35.9854 30.6349 35.9654 29.6549 35.9454 28.6849C35.9254 27.9249 35.9754 27.1149 36.0054 26.2949C39.5954 25.9149 41.7154 26.7249 43.0254 30.7949C43.7754 33.1449 43.9054 35.8849 43.9354 38.3449C43.9654 40.6849 43.9754 43.3349 43.0954 45.5149H43.1054Z" fill="white"/>
<path d="M31.2353 26.7549C30.4453 24.6349 27.9653 24.3649 26.0153 24.3049C25.1153 24.2749 25.1153 25.6749 26.0153 25.7049C27.1153 25.7349 28.6353 25.7049 29.4953 26.5849C30.2653 27.3749 30.0953 29.0049 30.1453 30.0349C30.2353 32.1049 30.2353 34.1649 30.3553 36.2349C30.4053 37.1349 31.8053 37.1349 31.7553 36.2349C31.6553 34.3149 31.6553 32.3849 31.5753 30.4549C31.5253 29.2649 31.6653 27.8749 31.2453 26.7449L31.2353 26.7549Z" fill="white"/>
<path d="M23.1853 24.325C22.2853 24.325 22.2853 25.725 23.1853 25.725C24.0853 25.725 24.0853 24.325 23.1853 24.325Z" fill="white"/>
</g>
<defs>
<clipPath id="clip0_401_1638">
<rect width="44.69" height="58.53" fill="white" transform="translate(0.655273 0.234985)"/>
</clipPath>
</defs>
</svg>
