<svg width="46" height="59" viewBox="0 0 46 59" fill="none" xmlns="http://www.w3.org/2000/svg">
<path d="M42.3169 18.5631C38.9369 14.6131 35.3969 14.8531 31.3969 16.9531C31.3969 16.0531 31.3469 15.1931 31.1569 14.4431C31.0069 13.8331 30.7469 13.3631 30.4269 12.9731C34.7169 9.53307 30.7869 1.99307 25.5969 3.71307C24.9369 1.96307 23.0069 0.63307 21.2269 0.31307C18.9069 -0.0969302 17.2469 1.08307 15.5969 2.46307C12.1569 -2.61693 2.83689 0.81307 3.12689 6.83307C0.106891 6.83307 -1.06311 9.94307 1.13689 11.7931C0.586891 12.2031 0.196891 12.7931 0.0668907 13.6431C0.0668907 13.6631 0.0668907 13.6731 0.0668907 13.6931C0.0668907 13.7431 0.0368907 13.7831 0.0368907 13.8331C0.126891 27.1531 -0.213109 40.5131 0.306891 53.8231C0.346891 54.9031 0.156891 56.2631 1.02689 57.0731C2.38689 58.3531 5.63689 58.1631 7.39689 58.3431C13.9669 59.0431 20.6069 58.9631 27.1569 58.1231C31.5569 57.5631 30.5569 55.0531 30.6769 50.9831C30.6769 50.7731 30.6869 50.5631 30.6969 50.3531C33.1269 51.7231 36.8769 51.8631 39.1269 50.5331C44.1469 47.5831 44.6069 40.5131 44.9269 35.3431C45.2269 30.3831 45.8369 22.6431 42.3269 18.5531L42.3169 18.5631ZM1.43689 13.9331C2.06689 11.4231 13.6069 12.5531 15.8969 12.5631C19.4169 12.5731 24.7569 11.7031 28.0369 13.0931C30.1469 13.9831 30.0269 16.6731 29.8469 19.0431C24.3469 18.4831 18.8669 18.3531 13.3469 18.6231C9.38689 18.8131 5.38689 18.2731 1.44689 18.7031C1.44689 17.1131 1.44689 15.5331 1.43689 13.9431V13.9331ZM31.1369 26.0531C31.2769 26.0731 31.4269 26.0531 31.5869 25.9531C33.4269 24.7331 36.5169 24.9131 37.3169 27.1231C37.8069 28.4831 37.7669 30.6231 37.7869 32.0831C37.8269 34.0231 37.4669 36.2731 37.1969 38.2331C36.9569 39.9831 36.7369 42.1531 34.7769 42.7131C33.5569 43.0631 32.0269 42.9131 30.9269 42.3131C31.0369 38.6731 31.1269 35.0331 31.1369 31.3931C31.1369 29.6131 31.1369 27.8331 31.1269 26.0631L31.1369 26.0531ZM3.72689 8.27307C4.26689 8.38307 4.70689 7.95307 4.58689 7.41307C3.45689 2.03307 12.3969 -0.99693 14.8169 3.89307C15.0369 4.32307 15.5969 4.30307 15.9169 4.03307C17.1069 3.02307 18.4369 1.67307 20.1169 1.60307C21.8969 1.52307 24.1769 3.01307 24.4469 4.84307C24.5169 5.31307 25.1169 5.44307 25.4769 5.26307C29.8069 3.03307 32.6169 9.63307 29.2569 12.0631C28.1269 11.5031 26.6769 11.4131 25.3169 11.3131C20.1369 10.9531 14.8669 11.1431 9.68689 11.1931C7.96689 11.2131 4.92689 10.6231 2.70689 11.1031C1.72689 10.2731 1.64689 7.85307 3.71689 8.26307L3.72689 8.27307ZM28.3169 56.5731C27.4469 57.2531 23.6669 57.1231 22.3969 57.2131C20.8069 57.3231 19.2169 57.4031 17.6169 57.4231C14.4269 57.4731 11.2369 57.3431 8.06689 57.0331C6.49689 56.8831 4.13689 57.1331 2.83689 56.3531C1.17689 55.3531 1.69689 53.4031 1.65689 51.7631C1.39689 41.2031 1.47689 30.6531 1.45689 20.0931C5.77689 19.5431 10.3369 20.1431 14.6869 19.9531C19.7169 19.7331 24.7369 19.9231 29.7469 20.4331C29.7369 20.6831 29.7169 20.9231 29.7169 21.1431C29.6969 24.1231 29.7369 27.1131 29.7369 30.0931C29.7369 36.1531 29.5069 42.2131 29.3369 48.2731C29.2769 50.4131 30.1269 55.1431 28.3069 56.5831L28.3169 56.5731ZM43.5869 34.0631C43.4269 38.1431 43.2669 43.0131 41.0769 46.5831C39.1069 49.7931 33.9169 51.4531 30.7369 48.7231C30.7869 47.0931 30.8369 45.4631 30.8869 43.8231C32.7969 44.5631 35.5569 44.5431 37.0969 43.2231C37.9669 42.4831 38.2869 41.2631 38.4769 40.1931C38.8969 37.8131 39.1969 35.1031 39.2169 32.6731C39.2369 30.6131 39.4269 26.4631 37.8169 24.9131C36.2369 23.3831 32.9569 23.5831 31.1269 24.6231C31.1269 23.8831 31.1269 23.1431 31.1269 22.4131C31.1269 21.2831 31.2669 19.9331 31.3569 18.5831C33.4769 17.3431 35.5669 16.1731 38.0469 17.1131C40.0669 17.8731 41.6369 19.6331 42.4269 21.5831C43.9069 25.2531 43.7469 30.1531 43.5969 34.0631H43.5869Z" fill="#2E3A37"/>
<path d="M15.1968 22.813C13.2668 23.563 13.4068 27.503 13.2768 29.043C12.9568 32.793 12.7168 36.563 12.6968 40.323C12.6968 42.063 11.8168 54.903 16.0968 53.233C17.7268 52.593 17.3868 49.923 17.4568 48.573C17.6868 44.153 17.9068 39.733 18.0968 35.313C18.1568 33.893 19.0968 21.303 15.1968 22.813ZM16.6668 35.943C16.4668 40.433 16.8268 45.483 15.9968 49.893C16.0868 50.443 15.9468 50.903 15.5668 51.293C15.2368 52.133 15.0268 52.063 14.9368 51.083C14.3468 50.183 14.3468 47.933 14.2668 47.063C14.0668 44.823 14.0968 42.563 14.0968 40.313C14.1268 36.213 14.3468 32.083 14.7668 28.003C14.8568 27.123 14.5568 24.663 16.1168 25.023C16.6168 25.133 16.7068 28.033 16.7468 28.563C16.9468 31.003 16.7768 33.493 16.6668 35.933V35.943Z" fill="#2E3A37"/>
<path d="M6.73683 22.813C4.80683 23.563 4.94683 27.503 4.81683 29.043C4.49683 32.793 4.25683 36.563 4.23683 40.323C4.23683 42.063 3.35683 54.903 7.63683 53.233C9.26683 52.593 8.92683 49.923 8.99683 48.573C9.22683 44.153 9.44683 39.733 9.63683 35.313C9.69683 33.893 10.6368 21.303 6.73683 22.813ZM8.20683 35.943C8.00683 40.433 8.36683 45.483 7.53683 49.893C7.62683 50.443 7.48683 50.903 7.10683 51.293C6.77683 52.133 6.56683 52.063 6.47683 51.083C5.88683 50.183 5.88683 47.933 5.80683 47.063C5.60683 44.823 5.63683 42.563 5.63683 40.313C5.66683 36.213 5.88683 32.083 6.30683 28.003C6.39683 27.123 6.09683 24.663 7.65683 25.023C8.15683 25.133 8.24683 28.033 8.28683 28.563C8.48683 31.003 8.31683 33.493 8.20683 35.933V35.943Z" fill="#2E3A37"/>
<path d="M23.6665 23.323C21.7365 24.073 21.8765 28.013 21.7465 29.553C21.4265 33.303 21.1865 37.073 21.1665 40.833C21.1665 42.573 20.2865 55.413 24.5665 53.743C26.1965 53.103 25.8565 50.433 25.9265 49.083C26.1565 44.663 26.3765 40.243 26.5665 35.823C26.6265 34.403 27.5665 21.813 23.6665 23.323ZM25.1365 36.453C24.9365 40.943 25.2965 45.993 24.4665 50.403C24.5565 50.953 24.4165 51.413 24.0365 51.803C23.7065 52.643 23.4965 52.573 23.4065 51.593C22.8165 50.693 22.8165 48.443 22.7365 47.573C22.5365 45.333 22.5665 43.073 22.5665 40.823C22.5965 36.723 22.8165 32.593 23.2365 28.513C23.3265 27.633 23.0265 25.173 24.5865 25.533C25.0865 25.643 25.1765 28.543 25.2165 29.073C25.4165 31.513 25.2465 34.003 25.1365 36.443V36.453Z" fill="#2E3A37"/>
<path d="M37.0468 18.333C36.1768 18.083 35.8068 19.433 36.6768 19.683C38.9168 20.333 39.6968 22.373 40.0968 24.443C40.2668 25.323 41.6168 24.953 41.4468 24.073C40.9468 21.483 39.7768 19.123 37.0468 18.333Z" fill="#2E3A37"/>
<path d="M34.2971 18.3831C33.3971 18.3831 33.3971 19.7831 34.2971 19.7831C35.1971 19.7831 35.1971 18.3831 34.2971 18.3831Z" fill="#2E3A37"/>
</svg>
