<svg width="51" height="36" viewBox="0 0 51 36" fill="none" xmlns="http://www.w3.org/2000/svg">
<path d="M48.0299 5.41986C46.4199 4.27986 44.6899 4.13986 43.1299 4.92986C43.1199 2.85986 42.4399 1.27986 40.6099 0.839858C40.5799 0.839858 40.5499 0.839858 40.5199 0.839858C40.4899 0.839858 40.4599 0.819858 40.4299 0.819858C29.0999 0.439858 17.3399 -0.120141 6.02995 0.859859C2.21995 1.18986 2.58995 3.50986 2.86995 6.92986C3.15995 10.5299 3.86995 14.1399 5.39995 17.4199C6.36995 19.4999 7.63995 21.2799 9.15995 22.7599C5.83995 23.0999 -0.0800519 24.2799 -5.19256e-05 27.5499C0.0599481 30.0299 4.48995 30.8999 6.26995 31.1699C6.97995 31.2799 7.69995 31.3699 8.41995 31.4399C10.4299 36.0299 18.0099 35.1799 22.0399 35.2399C25.6099 35.2899 29.5599 35.4399 33.0699 34.6999C35.2199 34.2499 36.2399 32.7599 37.4999 31.0799C40.1699 30.7799 44.4199 30.2299 45.4499 28.1099C46.9999 24.9199 38.6399 23.5399 35.0599 23.1499C35.3999 22.8299 35.7299 22.4899 36.0499 22.1399C36.1299 22.1599 36.1999 22.1799 36.2999 22.1799C41.8399 21.9499 49.5599 18.3299 50.2199 12.0999C50.4699 9.76986 50.0299 6.85986 48.0199 5.42986L48.0299 5.41986ZM42.1999 10.5999C42.7199 10.3899 43.5399 10.0699 44.1099 10.2699C44.8599 10.5399 45.1399 11.3199 45.0099 12.0399C44.8299 13.0199 43.9499 13.9899 43.1699 14.5499C42.3199 15.1599 41.0599 15.8399 39.9299 16.0799C40.6599 14.5099 41.4599 12.5799 42.0799 10.6199C42.1199 10.6199 42.1599 10.6199 42.1999 10.5999ZM29.7299 33.6399C27.5999 33.7999 25.4699 33.8599 23.3299 33.8599C20.2099 33.8599 12.3699 34.6099 10.0899 31.5999C13.6099 31.8499 17.1899 31.7999 20.6699 31.8699C25.6099 31.9599 30.5599 31.9099 35.4699 31.3199C33.9299 32.9099 32.2599 33.4599 29.7199 33.6399H29.7299ZM33.7599 24.4399C36.0899 24.5499 38.3899 25.0299 40.6099 25.7299C41.3399 25.9599 43.0999 26.2999 43.5599 26.8799C44.5799 28.1599 40.5699 29.0599 39.7199 29.2499C33.7599 30.5999 27.4099 30.5799 21.3299 30.4799C18.4599 30.4299 15.5799 30.3499 12.7099 30.2399C9.90995 30.1299 5.35995 30.4699 2.90995 28.7599C-0.390052 26.4699 4.50995 25.2299 6.31995 24.7599C7.69995 24.4099 9.12995 24.1199 10.5599 24.0699C10.5899 24.0699 10.6099 24.0599 10.6299 24.0499C13.5199 26.2999 17.0899 27.6099 21.0299 27.9499C25.8399 28.3599 30.1299 27.0799 33.6099 24.3999C33.6599 24.4099 33.7099 24.4399 33.7699 24.4399H33.7599ZM33.9299 22.3999C27.8199 28.1999 17.0499 28.0299 10.7799 22.4899C8.00995 20.0399 6.30995 16.6899 5.33995 13.1699C4.77995 11.1299 4.44995 9.03986 4.26995 6.93986C4.20995 6.23986 3.94995 4.80986 4.12995 4.12986C4.75995 1.74986 7.15995 2.23986 8.84995 2.19986C19.3299 1.93986 29.8199 1.88986 40.2999 2.22986C43.2099 3.02986 40.3799 11.1399 39.7899 12.8399C38.5599 16.3699 36.6699 19.8099 33.9399 22.4099L33.9299 22.3999ZM46.3899 16.4399C43.9499 18.8899 40.6499 20.3599 37.2399 20.7099C37.6499 20.1699 38.0499 19.5999 38.4199 18.9999C38.6299 18.6499 38.9099 18.1599 39.2099 17.5699C39.2299 17.5699 39.2399 17.5699 39.2499 17.5699C41.7899 17.4899 44.9399 15.5299 46.0399 13.2499C46.5599 12.1699 46.5999 10.8499 45.8499 9.84986C45.0299 8.75986 43.7299 8.68986 42.5299 9.00986C42.7399 8.20986 42.8999 7.40986 42.9999 6.65986C45.6699 4.39986 48.4799 7.16986 48.7799 9.93986C49.0699 12.6199 48.2299 14.5699 46.3799 16.4299L46.3899 16.4399Z" fill="#333333"/>
<path d="M7.22993 5.93004C7.15993 5.04004 5.75993 5.03004 5.82993 5.93004C6.11993 9.51004 7.20993 12.86 9.11993 15.9C9.59993 16.66 10.8099 15.96 10.3299 15.19C8.54993 12.35 7.49993 9.26004 7.22993 5.92004V5.93004Z" fill="#333333"/>
<path d="M11.13 17.52C10.23 17.52 10.23 18.92 11.13 18.92C12.03 18.92 12.03 17.52 11.13 17.52Z" fill="#333333"/>
</svg>
