<svg width="29" height="56" viewBox="0 0 29 56" fill="none" xmlns="http://www.w3.org/2000/svg">
<path d="M5.76213 11.5924C6.04213 9.73239 6.30213 7.87239 6.55213 6.01239C6.67213 5.12239 5.27213 5.13239 5.15213 6.01239C4.92213 7.75239 4.67213 9.49239 4.41213 11.2224C4.28213 12.1024 5.63213 12.4824 5.76213 11.5924Z" fill="#2E3A36"/>
<path d="M6.26191 4.12241C7.16191 4.12241 7.16191 2.72241 6.26191 2.72241C5.36191 2.72241 5.36191 4.12241 6.26191 4.12241Z" fill="#2E3A36"/>
<path d="M16.1019 47.6224C16.1719 43.4424 16.1819 39.2624 16.1019 35.0724C32.3919 33.5224 28.6919 11.4824 24.7019 0.532363C24.6519 0.232363 24.4419 -0.0276366 24.0519 0.00236339C17.4519 0.412363 10.8519 0.332363 4.25193 0.0823634C4.21193 0.0823634 4.18193 0.0923634 4.15193 0.102363C4.09193 0.102363 4.03193 0.112363 3.97193 0.132363C3.97193 0.132363 3.97193 0.132363 3.96193 0.132363C3.77193 0.192363 3.61193 0.332363 3.55193 0.592363C1.99193 8.24236 -1.09807 17.0324 0.901932 24.8824C2.28193 30.3224 6.76193 34.0724 12.0619 34.9624C12.0619 35.0024 12.0419 35.0324 12.0419 35.0824C12.1319 39.2924 12.1219 43.5024 12.0419 47.7124C9.79193 47.7424 -0.538068 47.7124 0.0219316 51.8924C0.461932 55.1724 9.35193 55.1524 11.6019 55.2724C15.1619 55.4724 18.7319 55.2324 22.2519 54.6524C23.6719 54.4124 27.6219 53.7424 28.0919 51.9224C29.1319 47.8624 18.6019 47.6624 16.1019 47.6224ZM4.78193 1.50236C11.0319 1.73236 17.2919 1.79236 23.5419 1.43236C24.8819 5.24236 26.2419 10.5024 26.6419 15.6924C26.5619 15.6924 26.4919 15.7124 26.4119 15.7524C21.2719 18.1724 17.2619 17.6924 11.9119 16.6424C8.46193 15.9624 5.19193 16.3324 1.89193 17.2924C2.26193 11.9724 3.71193 6.70236 4.79193 1.51236L4.78193 1.50236ZM1.80193 20.9624C1.77193 20.2324 1.78193 19.4924 1.80193 18.7624C4.32193 17.9824 6.92193 17.4424 9.57193 17.6724C11.8219 17.8624 13.9719 18.6524 16.2019 19.0024C19.9519 19.5824 23.3519 18.6624 26.7219 17.1224C27.0719 25.5524 24.6119 33.3624 15.0519 33.7624C7.38193 34.0824 2.11193 28.3324 1.80193 20.9624ZM23.7719 52.9324C20.0119 54.0724 15.5219 54.0924 11.6119 53.8724C9.12193 53.7324 5.02193 53.8324 2.79193 52.5124C0.441932 51.1224 3.60193 50.1424 5.08193 49.8024C7.36193 49.2824 9.70193 49.1324 12.0319 49.1024C12.0219 49.6224 12.0319 50.1424 12.0119 50.6724C11.9919 51.5724 13.3919 51.5724 13.4119 50.6724C13.5419 45.4824 13.5519 40.3024 13.4419 35.1224C13.8619 35.1524 14.2719 35.1624 14.7019 35.1624C14.8119 40.3424 14.7919 45.5024 14.6719 50.6824C14.6519 51.5824 16.0519 51.5824 16.0719 50.6824C16.0819 50.1324 16.0819 49.5824 16.0919 49.0324C18.4419 49.0724 20.8019 49.2324 23.1019 49.7624C23.6819 49.9024 25.4419 50.1324 25.8219 50.6624C26.9319 52.2124 24.6919 52.6724 23.7819 52.9424L23.7719 52.9324Z" fill="#2E3A36"/>
</svg>
