<svg width="41" height="61" viewBox="0 0 41 61" fill="none" xmlns="http://www.w3.org/2000/svg">
<g clip-path="url(#clip0_401_1919)">
<path d="M18.355 39.1699C19.205 38.0999 20.565 36.5999 20.505 35.1299C20.435 33.4599 18.885 31.7099 17.735 30.6099C15.075 28.0699 10.515 29.4199 8.09502 31.6699C6.94502 32.8299 5.97502 34.0199 6.16502 35.7499C6.33502 37.2699 7.52502 40.4499 8.84502 41.3599C9.98502 42.1499 12.715 42.0299 14.025 41.9699C16.035 41.8799 17.135 40.6799 18.355 39.1599V39.1699ZM15.295 30.8999C14.795 31.5299 14.295 32.1599 13.785 32.7799C13.265 33.4199 12.615 33.9499 12.085 34.5699C11.665 34.5099 11.205 34.5699 10.705 34.6099C9.76502 34.6699 8.82502 34.6999 7.88502 34.7999C8.06502 34.0599 8.45502 33.3299 9.09502 32.6699C10.615 31.2499 13.185 30.3299 15.305 30.8999H15.295ZM11.715 40.4399C9.53502 40.0399 7.95502 38.2099 7.76502 36.1899C8.97502 36.0399 11.525 35.4799 12.345 36.3699C13.325 37.4199 13.715 39.0799 14.545 40.2699C13.715 40.5599 12.775 40.6399 11.705 40.4399H11.715ZM15.795 39.6399C15.795 39.6399 15.795 39.6199 15.785 39.6099C14.835 38.2999 14.375 36.5299 13.295 35.3099C13.775 34.7899 14.325 34.3299 14.775 33.7799C15.385 33.0399 15.965 32.2699 16.585 31.5299C16.585 31.5299 16.585 31.5099 16.595 31.4999C16.645 31.5399 16.705 31.5699 16.755 31.5999C17.475 32.1499 18.945 33.9099 19.065 34.9199C19.175 35.8499 18.305 36.9099 17.815 37.5999C17.205 38.4399 16.555 39.1299 15.815 39.6399H15.795Z" fill="#333333"/>
<path d="M26.1952 45.53C23.5652 44.27 18.9652 44.04 17.0452 46.71C16.0952 48.03 15.0352 50.5 15.3152 52.16C15.5852 53.8 17.3052 54.84 18.5852 55.72C20.1652 56.8 21.6352 57.66 23.5552 57.13C24.8552 56.77 27.4352 56.14 28.3252 55.02C29.3552 53.73 29.5352 50.32 29.2152 48.76C28.8752 47.11 27.6152 46.27 26.1952 45.53ZM25.4852 46.74C26.2152 47.12 26.7952 47.73 27.2052 48.45C26.3652 48.63 25.5352 48.85 24.6952 49.06C24.1652 49.19 23.6552 49.26 23.2152 49.47C22.5252 49.04 21.7652 48.73 21.0752 48.28C20.3852 47.83 19.7052 47.36 19.0152 46.9C20.8852 45.74 23.6852 45.89 25.4752 46.75L25.4852 46.74ZM16.6752 51.91C16.4652 50.88 17.2952 48.74 17.9552 47.84C17.9752 47.85 17.9752 47.87 17.9952 47.88C18.7952 48.4 19.5752 48.96 20.3752 49.48C20.9852 49.88 21.6552 50.17 22.2752 50.53C21.6352 52.02 21.7152 53.82 21.1952 55.35C21.1952 55.37 21.1952 55.39 21.1952 55.41C20.5352 55.21 19.8852 54.92 19.2852 54.51C18.5452 54 16.8852 52.99 16.6752 51.91ZM26.1252 54.66C25.0052 55.41 23.7852 55.72 22.5752 55.66C23.0352 54.25 22.9252 52.58 23.5252 51.25C23.8552 50.52 24.6452 50.52 25.3652 50.34C26.1552 50.14 26.9452 49.93 27.7452 49.77C28.2052 51.55 27.7752 53.57 26.1252 54.68V54.66Z" fill="#333333"/>
<path d="M24.5649 34.1299C25.8749 34.3099 27.0749 33.3599 27.3149 32.0799C27.5749 30.7399 26.8149 29.8599 25.6249 29.3899C25.4949 29.3399 25.3749 29.3399 25.2749 29.3599C23.9649 29.2799 22.5849 29.8899 22.2849 31.2799C21.9849 32.6399 23.2649 33.9599 24.5649 34.1299ZM23.6849 31.4499C23.9049 30.7899 24.6749 30.7099 25.2749 30.7499C25.7549 30.9499 26.0549 31.2499 25.9449 31.8099C25.8349 32.3699 25.3349 32.8199 24.7449 32.7399C24.1849 32.6599 23.4849 32.0599 23.6849 31.4499Z" fill="#333333"/>
<path d="M29.4252 37.01C29.2952 36.96 29.1752 36.96 29.0752 36.98C27.7652 36.9 26.3852 37.51 26.0852 38.9C25.7852 40.26 27.0652 41.58 28.3652 41.75C29.6752 41.93 30.8752 40.98 31.1152 39.7C31.3752 38.36 30.6152 37.48 29.4252 37.01ZM29.7452 39.43C29.6352 40 29.1352 40.44 28.5452 40.36C27.9852 40.28 27.2852 39.68 27.4852 39.07C27.7052 38.41 28.4752 38.33 29.0752 38.37C29.5552 38.57 29.8552 38.87 29.7452 39.43Z" fill="#333333"/>
<path d="M11.3451 47.19C11.2151 47.14 11.0951 47.14 10.9951 47.16C9.6851 47.08 8.3051 47.69 8.0051 49.08C7.7051 50.44 8.9851 51.76 10.2851 51.93C11.5951 52.11 12.7951 51.16 13.0351 49.88C13.2951 48.54 12.5351 47.66 11.3451 47.19ZM11.6651 49.61C11.5551 50.17 11.0551 50.62 10.4651 50.54C9.9051 50.46 9.2051 49.86 9.4051 49.25C9.6251 48.59 10.3951 48.51 10.9951 48.55C11.4751 48.75 11.7751 49.05 11.6651 49.61Z" fill="#333333"/>
<path d="M37.3551 12.22C37.6051 12.47 38.1051 12.51 38.3451 12.22C39.1751 11.24 40.0251 10.26 40.7751 9.22C40.9651 8.96 40.8551 8.59 40.6651 8.37C38.4051 5.71 31.6751 -3.91 28.7351 3.33C27.7351 5.79 27.3051 8.64 26.6351 11.2C26.3351 12.35 26.0351 13.5 25.7351 14.66C17.4351 14.64 9.13511 14.43 0.835107 14.43C0.715107 14.43 0.615107 14.46 0.525107 14.5C0.285107 14.58 0.105107 14.79 0.135107 15.13C1.10511 25.58 2.30511 36.02 3.97511 46.38C4.41511 49.09 4.87511 51.8 5.38511 54.5C5.65511 55.92 5.62511 58.34 6.64511 59.45C7.42511 60.3 8.77511 60.13 9.80511 60.17C12.5751 60.26 15.3451 60.34 18.1251 60.33C20.5751 60.33 23.0151 60.28 25.4651 60.26C26.8451 60.25 29.1151 60.57 30.3951 59.9C33.1251 58.48 32.7951 53.11 33.2051 50.51C35.0551 38.81 36.9151 27.11 38.7651 15.41C38.8351 14.98 38.5851 14.51 38.0951 14.52C35.7851 14.6 33.4651 14.63 31.1551 14.66C31.7351 12.4 32.3751 10.16 33.0751 7.94C34.5151 9.37 35.9451 10.8 37.3651 12.24L37.3551 12.22ZM24.5751 25.38C25.2651 22.26 26.0251 19.16 26.8151 16.06C27.6551 16.06 28.4951 16.06 29.3251 16.06C28.5451 19.2 27.8251 22.36 27.0751 25.5C26.2451 25.5 25.4051 25.45 24.5751 25.38ZM23.1751 25.24C21.3351 25.03 19.4951 24.71 17.6451 24.38C12.3651 23.42 7.66511 23.28 2.50511 24.75C2.18511 21.78 1.87511 18.81 1.59511 15.84C9.52511 15.86 17.4451 16.05 25.3751 16.07C24.5951 19.12 23.8451 22.18 23.1751 25.25V25.24ZM32.9151 43.36L31.8451 50.11C31.5151 52.2 31.5251 54.89 30.7751 56.86C29.8351 59.3 27.6351 58.82 25.4451 58.84C23.2051 58.86 20.9651 58.9 18.7251 58.91C16.6151 58.92 14.5051 58.91 12.4051 58.86C11.4251 58.83 10.0851 59.03 9.13511 58.73C7.18511 58.13 7.38511 57.5 7.08511 55.96C6.23511 51.6 5.48511 47.23 4.82511 42.84C3.98511 37.29 3.28511 31.73 2.66511 26.15C9.58511 24.14 15.4751 25.71 22.3751 26.65C26.8951 27.27 31.5151 27.02 35.7651 25.37C34.8151 31.37 33.8651 37.37 32.9151 43.37V43.36ZM37.2651 15.92C36.8451 18.54 36.4351 21.16 36.0151 23.78C33.5451 24.88 31.0451 25.36 28.5251 25.47C29.2751 22.33 29.9951 19.18 30.7851 16.04C32.9451 16.02 35.1051 15.98 37.2651 15.92ZM29.6951 14.65C28.8551 14.65 28.0151 14.65 27.1851 14.65C27.4151 13.77 27.6451 12.88 27.8751 12C28.5351 9.48 28.8151 5.84 30.1651 3.56C31.9251 0.58 34.0151 3.12 35.5451 4.72C36.3351 5.54 39.2751 8.04 39.1951 9.03C39.1551 9.54 38.0451 10.22 37.7851 10.71C37.7551 10.65 37.7251 10.6 37.6851 10.53C36.6751 8.9 34.6251 7.44 33.2551 6.09C32.8651 5.71 32.2451 5.9 32.0851 6.4C31.1851 9.11 30.4151 11.87 29.7051 14.63L29.6951 14.65Z" fill="#333333"/>
<path d="M3.21488 20.3601C3.40488 21.2101 3.55488 22.0701 3.69488 22.9301C3.84488 23.8201 5.19488 23.4401 5.04488 22.5601C4.88488 21.5901 4.72488 20.6201 4.48488 19.6701C4.45488 19.5301 4.28488 19.1701 4.31488 19.0401C4.28488 19.0101 4.25488 18.9801 4.23488 18.9501C4.36488 18.9401 4.49488 18.9301 4.62488 18.9201C5.17488 18.8901 5.71488 18.9301 6.25488 19.0001C7.14488 19.1101 7.13488 17.7101 6.25488 17.6001C5.27488 17.4801 3.16488 17.1601 2.89488 18.5601C2.78488 19.1401 3.08488 19.8101 3.21488 20.3601Z" fill="#333333"/>
<path d="M8.425 19.18C9.325 19.18 9.325 17.78 8.425 17.78C7.525 17.78 7.525 19.18 8.425 19.18Z" fill="#333333"/>
</g>
<defs>
<clipPath id="clip0_401_1919">
<rect width="40.75" height="59.64" fill="white" transform="translate(0.125 0.679932)"/>
</clipPath>
</defs>
</svg>
