<svg width="51" height="55" viewBox="0 0 51 55" fill="none" xmlns="http://www.w3.org/2000/svg">
<path d="M17.4599 17.0002C17.3199 17.3402 17.4699 17.6002 17.7099 17.7302C17.8999 17.9302 18.1899 18.0102 18.4799 17.7902C20.0399 16.6202 21.5999 14.8302 21.4099 12.7302C21.2099 10.6202 15.6999 6.02016 19.5099 4.54016C20.2099 4.27016 20.1699 3.16016 19.3199 3.16016C16.6699 3.16016 13.9499 4.07016 13.7899 7.10016C13.5699 11.1302 19.2599 12.5702 17.4599 16.9902V17.0002ZM16.5099 9.97016C14.6299 7.77016 15.1499 5.89016 16.9399 5.05016C16.6499 5.71016 16.5999 6.50016 16.8699 7.46016C17.1499 8.46016 17.7799 9.36016 18.3999 10.1702C19.7599 11.9602 20.1799 13.5902 19.1999 15.1202C19.1799 14.1902 18.9599 13.2602 18.5299 12.4702C17.9999 11.4802 17.2199 10.8102 16.5099 9.97016Z" fill="#333333"/>
<path d="M26.4199 16.66C26.2799 17 26.4299 17.26 26.6699 17.39C26.8599 17.59 27.1499 17.67 27.4399 17.45C29.2899 16.06 31.1499 13.94 30.9099 11.44C30.6499 8.79 23.7799 3.29 28.7199 1.37C29.4299 1.1 29.3799 0 28.5399 0C25.3899 0.01 22.2099 1.05 21.9799 4.63C21.6699 9.53 28.6299 11.21 26.4199 16.66ZM25.0299 8.2C22.5599 5.31 23.4099 2.83 25.9499 1.85C25.4599 2.68 25.3599 3.72 25.7199 5.01C26.0499 6.2 26.7999 7.26 27.5399 8.23C29.3399 10.61 29.8099 12.77 28.2499 14.79C28.3099 13.54 28.0399 12.27 27.4599 11.2C26.8199 10.02 25.8899 9.21 25.0299 8.2Z" fill="#333333"/>
<path d="M48.0299 24.4199C46.4199 23.2799 44.6899 23.1399 43.1299 23.9299C43.1199 21.8599 42.4399 20.2799 40.6099 19.8399C40.5799 19.8399 40.5499 19.8399 40.5199 19.8399C40.4899 19.8399 40.4599 19.8199 40.4299 19.8199C29.0999 19.4399 17.3399 18.8799 6.02995 19.8599C2.21995 20.1899 2.58995 22.5099 2.86995 25.9299C3.15995 29.5299 3.86995 33.1399 5.39995 36.4199C6.36995 38.4999 7.63995 40.2799 9.15995 41.7599C5.83995 42.0999 -0.0800519 43.2799 -5.19256e-05 46.5499C0.0599481 49.0299 4.48995 49.8999 6.26995 50.1699C6.97995 50.2799 7.69995 50.3699 8.41995 50.4399C10.4299 55.0299 18.0099 54.1799 22.0399 54.2399C25.6099 54.2899 29.5599 54.4399 33.0699 53.6999C35.2199 53.2499 36.2399 51.7599 37.4999 50.0799C40.1699 49.7799 44.4199 49.2299 45.4499 47.1099C46.9999 43.9199 38.6399 42.5399 35.0599 42.1499C35.3999 41.8299 35.7299 41.4899 36.0499 41.1399C36.1299 41.1599 36.1999 41.1799 36.2999 41.1799C41.8399 40.9499 49.5599 37.3299 50.2199 31.0999C50.4699 28.7699 50.0299 25.8599 48.0199 24.4299L48.0299 24.4199ZM42.1999 29.5999C42.7199 29.3899 43.5399 29.0699 44.1099 29.2699C44.8599 29.5399 45.1399 30.3199 45.0099 31.0399C44.8299 32.0199 43.9499 32.9899 43.1699 33.5499C42.3199 34.1599 41.0599 34.8399 39.9299 35.0799C40.6599 33.5099 41.4599 31.5799 42.0799 29.6199C42.1199 29.6199 42.1599 29.6199 42.1999 29.5999ZM29.7299 52.6399C27.5999 52.7999 25.4699 52.8599 23.3299 52.8599C20.2099 52.8599 12.3699 53.6099 10.0899 50.5999C13.6099 50.8499 17.1899 50.7999 20.6699 50.8699C25.6099 50.9599 30.5599 50.9099 35.4699 50.3199C33.9299 51.9099 32.2599 52.4599 29.7199 52.6399H29.7299ZM33.7599 43.4399C36.0899 43.5499 38.3899 44.0299 40.6099 44.7299C41.3399 44.9599 43.0999 45.2999 43.5599 45.8799C44.5799 47.1599 40.5699 48.0599 39.7199 48.2499C33.7599 49.5999 27.4099 49.5799 21.3299 49.4799C18.4599 49.4299 15.5799 49.3499 12.7099 49.2399C9.90995 49.1299 5.35995 49.4699 2.90995 47.7599C-0.390052 45.4699 4.50995 44.2299 6.31995 43.7599C7.69995 43.4099 9.12995 43.1199 10.5599 43.0699C10.5899 43.0699 10.6099 43.0599 10.6299 43.0499C13.5199 45.2999 17.0899 46.6099 21.0299 46.9499C25.8399 47.3599 30.1299 46.0799 33.6099 43.3999C33.6599 43.4099 33.7099 43.4399 33.7699 43.4399H33.7599ZM33.9299 41.3999C27.8199 47.1999 17.0499 47.0299 10.7799 41.4899C8.00995 39.0399 6.30995 35.6899 5.33995 32.1699C4.77995 30.1299 4.44995 28.0399 4.26995 25.9399C4.20995 25.2399 3.94995 23.8099 4.12995 23.1299C4.75995 20.7499 7.15995 21.2399 8.84995 21.1999C19.3299 20.9399 29.8199 20.8899 40.2999 21.2299C43.2099 22.0299 40.3799 30.1399 39.7899 31.8399C38.5599 35.3699 36.6699 38.8099 33.9399 41.4099L33.9299 41.3999ZM46.3899 35.4399C43.9499 37.8899 40.6499 39.3599 37.2399 39.7099C37.6499 39.1699 38.0499 38.5999 38.4199 37.9999C38.6299 37.6499 38.9099 37.1599 39.2099 36.5699C39.2299 36.5699 39.2399 36.5699 39.2499 36.5699C41.7899 36.4899 44.9399 34.5299 46.0399 32.2499C46.5599 31.1699 46.5999 29.8499 45.8499 28.8499C45.0299 27.7599 43.7299 27.6899 42.5299 28.0099C42.7399 27.2099 42.8999 26.4099 42.9999 25.6599C45.6699 23.3999 48.4799 26.1699 48.7799 28.9399C49.0699 31.6199 48.2299 33.5699 46.3799 35.4299L46.3899 35.4399Z" fill="#333333"/>
<path d="M7.22993 24.93C7.15993 24.04 5.75993 24.03 5.82993 24.93C6.11993 28.51 7.20993 31.86 9.11993 34.9C9.59993 35.66 10.8099 34.96 10.3299 34.19C8.54993 31.35 7.49993 28.26 7.22993 24.92V24.93Z" fill="#333333"/>
<path d="M11.13 36.52C10.23 36.52 10.23 37.92 11.13 37.92C12.03 37.92 12.03 36.52 11.13 36.52Z" fill="#333333"/>
</svg>
