<svg width="51" height="51" viewBox="0 0 51 51" fill="none" xmlns="http://www.w3.org/2000/svg">
<g clip-path="url(#clip0_317_5212)">
<path d="M50.07 2.04006C50.07 2.04006 50.04 2.02006 50.03 2.00006C50.01 1.97006 50 1.93006 49.97 1.90006C48.46 0.320064 44.28 0.570064 42.34 0.430064C36.65 0.0200638 30.94 -0.0299362 25.25 0.0100638C19.64 0.0500638 14.01 0.190064 8.40999 0.680064C6.48999 0.850064 1.87999 0.660064 0.469993 2.34006C-0.160007 3.10006 0.0199932 4.38006 0.0399932 5.30006C0.0899932 7.83006 0.379993 10.3601 0.649993 12.8701C1.43999 20.3401 2.46999 27.7901 3.51999 35.2301C4.00999 38.6901 4.52999 42.1401 5.03999 45.5901C5.56999 49.1301 6.52999 49.4601 9.97999 49.8201C15.76 50.4201 21.59 50.5501 27.4 50.4401C30.09 50.3901 32.78 50.2901 35.47 50.1601C37.85 50.0401 41.26 50.4601 43.51 49.6601C46.81 48.4801 47.01 42.0701 47.5 39.1601C48.5 33.2401 48.87 27.2301 49.47 21.2601C49.86 17.4001 50.34 13.5601 50.53 9.68006C50.63 7.72006 51.4 3.77006 50.07 2.04006ZM49.13 9.68006C49 12.2201 48.79 14.7601 48.51 17.2901C48.02 21.6901 47.65 26.1001 47.21 30.5001C46.73 35.2901 46.54 41.3001 44.6 45.7801C43.24 48.9101 41.21 48.4501 38.14 48.6201C35.68 48.7601 33.23 48.8701 30.77 48.9501C25.84 49.1101 20.9 49.1301 15.97 48.8701C13.75 48.7501 11.53 48.6001 9.31999 48.3401C6.68999 48.0301 6.65999 47.0201 6.32999 44.8501C5.86999 41.8201 5.42999 38.7901 4.98999 35.7501C4.00999 28.9201 3.06999 22.0701 2.29999 15.2101C2.02999 12.8501 1.77999 10.4801 1.59999 8.11006C1.52999 7.19006 0.919993 4.29006 1.47999 3.44006C2.43999 1.99006 7.36999 2.16006 8.95999 2.03006C13.54 1.65006 18.14 1.51006 22.73 1.44006C28.22 1.35006 33.72 1.38006 39.2 1.64006C41.34 1.74006 43.5 1.86006 45.63 2.12006C46.39 2.21006 48.27 2.23006 48.92 2.85006C49.86 4.31006 49.2 8.16006 49.12 9.68006H49.13Z" fill="#333333"/>
<path d="M22.65 19.1403C19.4 15.6203 13.73 17.2503 10.69 20.2903C9.10998 22.0103 8.02998 23.6103 8.44998 26.0103C8.77998 27.9103 9.92998 31.1903 11.37 32.5203C12.75 33.8003 16.14 33.6703 17.92 33.5903C20.32 33.4803 21.58 32.0203 22.98 30.1703C24.07 28.7303 25.83 26.6903 25.77 24.7503C25.71 22.7403 23.95 20.5503 22.66 19.1503L22.65 19.1403ZM19.8 18.9803C19.05 19.9603 18.33 20.9703 17.58 21.9503C16.96 22.7503 16.19 23.4303 15.56 24.2203C15.1 24.1303 14.59 24.1903 13.98 24.2403C12.72 24.3303 11.45 24.3703 10.2 24.5103C10.4 23.3003 10.88 22.1603 11.69 21.2803C13.68 19.2803 17.09 18.0003 19.81 18.9803H19.8ZM14.54 31.9703C11.68 31.4203 10.15 28.6803 10.09 25.9103C11.74 25.7003 14.95 24.9503 16.03 26.3503C17.19 27.8603 17.66 29.9003 18.73 31.4803C18.77 31.5303 18.81 31.5703 18.86 31.6103C17.62 32.1403 16.21 32.2903 14.54 31.9703ZM22.67 28.1903C21.87 29.3703 21 30.3103 20.03 30.9803C20.01 30.9103 19.99 30.8503 19.95 30.7803C18.75 29.0003 18.21 26.7203 16.86 25.0503C16.83 25.0103 16.79 24.9803 16.76 24.9403C17.4 24.1403 18.19 23.4403 18.81 22.6303C19.57 21.6403 20.3 20.6203 21.06 19.6303C21.27 19.7803 21.47 19.9403 21.67 20.1303C22.56 20.9903 24.12 23.0903 24.3 24.3803C24.49 25.7303 23.38 27.1503 22.67 28.1903Z" fill="#333333"/>
<path d="M38.69 26.2601C35.34 24.5301 29.58 24.4501 27.38 28.0801C26.27 29.9201 25.02 33.0101 25.51 35.1801C25.92 36.9901 27.96 38.2901 29.37 39.3201C31.27 40.7301 33.07 41.9301 35.47 41.2301C37.12 40.7501 40.22 39.8701 41.3 38.4501C42.49 36.8901 42.7 32.2801 42.36 30.4601C41.96 28.3501 40.47 27.2501 38.7 26.2401L38.69 26.2601ZM37.98 27.4701C39.25 28.1801 40.04 28.9901 40.51 30.0501C40.51 30.0501 40.5 30.0501 40.49 30.0501C39.17 30.3201 37.87 30.7301 36.56 31.0701C36.05 31.2001 35.43 31.2301 34.92 31.4201C34.09 30.8901 33.18 30.4701 32.37 29.9001C31.44 29.2501 30.54 28.5701 29.62 27.9201C31.9 26.1401 35.46 26.1601 37.99 27.4701H37.98ZM26.83 34.5401C26.63 33.2301 27.56 30.7301 28.15 29.6401C28.29 29.3801 28.46 29.1401 28.63 28.9101C28.66 28.9401 28.67 28.9701 28.71 28.9901C29.7 29.6901 30.67 30.4201 31.66 31.1101C32.4 31.6301 33.23 32.0201 34 32.4901C33.74 33.3801 33.67 34.5601 33.51 35.4301C33.28 36.6601 33.14 37.9501 32.76 39.1501C32.71 39.3101 32.73 39.4501 32.77 39.5701C31.97 39.3401 31.22 38.9401 30.45 38.3901C29.29 37.5601 27.07 36.1001 26.83 34.5201V34.5401ZM40.3 37.2301C39.62 38.3001 37.12 39.2601 35.88 39.5801C35.2 39.7601 34.57 39.8201 33.97 39.7801C34.03 39.7101 34.08 39.6301 34.11 39.5301C34.72 37.6001 35.12 35.3201 35.38 33.3201C35.47 32.5901 35.29 32.8701 35.9 32.6501C36.32 32.4901 36.84 32.4401 37.28 32.3301C38.47 32.0201 39.66 31.6501 40.86 31.4001C40.87 31.4001 40.88 31.3901 40.89 31.3901C40.96 31.7701 41 32.1701 41.02 32.6201C41.06 33.7701 40.96 36.1901 40.3 37.2301Z" fill="#333333"/>
<path d="M5.01998 12.2202C4.81998 11.1102 4.62998 10.0102 4.42998 8.90018C4.18998 7.53018 3.66998 5.62018 5.71997 5.71018C6.61998 5.75018 6.61998 4.35018 5.71997 4.31018C1.12997 4.12018 3.20998 9.98018 3.66998 12.5902C3.82998 13.4802 5.17998 13.1002 5.01998 12.2202Z" fill="#333333"/>
<path d="M8.33998 5.53013C9.23998 5.53013 9.23998 4.13013 8.33998 4.13013C7.43998 4.13013 7.43998 5.53013 8.33998 5.53013Z" fill="#333333"/>
<path d="M42.42 14.9601C38.19 15.5401 34.33 15.9401 30.05 15.2701C25.67 14.5801 21.31 13.3301 16.86 13.2101C14.2 13.1401 11.5 13.3701 8.86999 13.6901C7.61999 13.8401 5.60999 13.7401 4.66999 14.6501C3.55999 15.7301 4.13999 17.3301 4.29999 18.6701C4.63999 21.4701 4.81999 24.2901 5.12999 27.1001C5.72999 32.6401 6.99999 38.0801 8.00999 43.5601C8.07999 43.9201 8.33998 44.0601 8.61999 44.0601C8.63999 44.0601 8.65998 44.0801 8.68998 44.0801C20.12 44.6201 31.65 44.5801 43.08 44.2201C43.36 44.2201 43.7 44.0101 43.75 43.7101C45.2 35.6401 45.97 27.2701 46.82 19.1001C47.24 15.0101 46.56 14.4001 42.43 14.9701L42.42 14.9601ZM45.41 19.0901C45.04 22.7001 44.5 26.3101 44.08 29.9201C43.76 32.6901 43.49 35.4601 43.16 38.2201C43.08 38.9301 42.88 42.5901 42.44 42.8301C41.94 43.1001 40.48 42.8301 39.92 42.8301C29.68 42.7601 19.5 43.1501 9.26999 42.7001C8.00999 35.8801 6.72999 29.1801 6.06999 22.2701C5.93999 20.9501 5.28998 18.8101 5.55998 17.5301C6.11998 14.8801 7.93999 15.1901 9.99999 14.9801C12.86 14.6901 15.79 14.4701 18.65 14.7501C23.61 15.2401 28.43 16.7601 33.41 17.0901C35.57 17.2301 37.71 17.1501 39.84 16.8201C40.95 16.6501 42.15 16.2701 43.28 16.2701C45.51 16.2601 45.61 17.2301 45.41 19.1101V19.0901Z" fill="#333333"/>
</g>
<defs>
<clipPath id="clip0_317_5212">
<rect width="50.84" height="50.47" fill="white"/>
</clipPath>
</defs>
</svg>
