<svg width="51" height="51" viewBox="0 0 51 51" fill="none" xmlns="http://www.w3.org/2000/svg">
<path d="M50.07 2.03982C50.07 2.03982 50.04 2.01982 50.03 1.99982C50.01 1.96982 50 1.92982 49.97 1.89982C48.46 0.31982 44.28 0.56982 42.34 0.42982C36.65 0.0198197 30.94 -0.0301803 25.25 0.00981967C19.64 0.0498197 14.01 0.18982 8.40999 0.67982C6.48999 0.84982 1.87999 0.65982 0.469993 2.33982C-0.160007 3.09982 0.0199932 4.37982 0.0399932 5.29982C0.0899932 7.82982 0.379993 10.3598 0.649993 12.8698C1.43999 20.3398 2.46999 27.7898 3.51999 35.2298C4.00999 38.6898 4.52999 42.1398 5.03999 45.5898C5.56999 49.1298 6.52999 49.4598 9.97999 49.8198C15.76 50.4198 21.59 50.5498 27.4 50.4398C30.09 50.3898 32.78 50.2898 35.47 50.1598C37.85 50.0398 41.26 50.4598 43.51 49.6598C46.81 48.4798 47.01 42.0698 47.5 39.1598C48.5 33.2398 48.87 27.2298 49.47 21.2598C49.86 17.3998 50.34 13.5598 50.53 9.67982C50.63 7.71982 51.4 3.76982 50.07 2.03982ZM49.13 9.67982C49 12.2198 48.79 14.7598 48.51 17.2898C48.02 21.6898 47.65 26.0998 47.21 30.4998C46.73 35.2898 46.54 41.2998 44.6 45.7798C43.24 48.9098 41.21 48.4498 38.14 48.6198C35.68 48.7598 33.23 48.8698 30.77 48.9498C25.84 49.1098 20.9 49.1298 15.97 48.8698C13.75 48.7498 11.53 48.5998 9.31999 48.3398C6.68999 48.0298 6.65999 47.0198 6.32999 44.8498C5.86999 41.8198 5.42999 38.7898 4.98999 35.7498C4.00999 28.9198 3.06999 22.0698 2.29999 15.2098C2.02999 12.8498 1.77999 10.4798 1.59999 8.10982C1.52999 7.18982 0.919993 4.28982 1.47999 3.43982C2.43999 1.98982 7.36999 2.15982 8.95999 2.02982C13.54 1.64982 18.14 1.50982 22.73 1.43982C28.22 1.34982 33.72 1.37982 39.2 1.63982C41.34 1.73982 43.5 1.85982 45.63 2.11982C46.39 2.20982 48.27 2.22982 48.92 2.84982C49.86 4.30982 49.2 8.15982 49.12 9.67982H49.13Z" fill="#333333"/>
<path d="M22.65 19.1398C19.4 15.6198 13.73 17.2498 10.69 20.2898C9.11004 22.0098 8.03004 23.6098 8.45004 26.0098C8.78004 27.9098 9.93004 31.1898 11.37 32.5198C12.75 33.7998 16.14 33.6698 17.92 33.5898C20.32 33.4798 21.58 32.0198 22.98 30.1698C24.07 28.7298 25.83 26.6898 25.77 24.7498C25.71 22.7398 23.95 20.5498 22.66 19.1498L22.65 19.1398ZM19.8 18.9798C19.05 19.9598 18.33 20.9698 17.58 21.9498C16.96 22.7498 16.19 23.4298 15.56 24.2198C15.1 24.1298 14.59 24.1898 13.98 24.2398C12.72 24.3298 11.45 24.3698 10.2 24.5098C10.4 23.2998 10.88 22.1598 11.69 21.2798C13.68 19.2798 17.09 17.9998 19.81 18.9798H19.8ZM14.54 31.9698C11.68 31.4198 10.15 28.6798 10.09 25.9098C11.74 25.6998 14.95 24.9498 16.03 26.3498C17.19 27.8598 17.66 29.8998 18.73 31.4798C18.77 31.5298 18.81 31.5698 18.86 31.6098C17.62 32.1398 16.21 32.2898 14.54 31.9698ZM22.67 28.1898C21.87 29.3698 21 30.3098 20.03 30.9798C20.01 30.9098 19.99 30.8498 19.95 30.7798C18.75 28.9998 18.21 26.7198 16.86 25.0498C16.83 25.0098 16.79 24.9798 16.76 24.9398C17.4 24.1398 18.19 23.4398 18.81 22.6298C19.57 21.6398 20.3 20.6198 21.06 19.6298C21.27 19.7798 21.47 19.9398 21.67 20.1298C22.56 20.9898 24.12 23.0898 24.3 24.3798C24.49 25.7298 23.38 27.1498 22.67 28.1898Z" fill="#333333"/>
<path d="M38.69 26.2596C35.34 24.5296 29.58 24.4496 27.38 28.0796C26.27 29.9196 25.02 33.0096 25.51 35.1796C25.92 36.9896 27.96 38.2896 29.37 39.3196C31.27 40.7296 33.07 41.9296 35.47 41.2296C37.12 40.7496 40.22 39.8696 41.3 38.4496C42.49 36.8896 42.7 32.2796 42.36 30.4596C41.96 28.3496 40.47 27.2496 38.7 26.2396L38.69 26.2596ZM37.98 27.4696C39.25 28.1796 40.04 28.9896 40.51 30.0496C40.51 30.0496 40.5 30.0496 40.49 30.0496C39.17 30.3196 37.87 30.7296 36.56 31.0696C36.05 31.1996 35.43 31.2296 34.92 31.4196C34.09 30.8896 33.18 30.4696 32.37 29.8996C31.44 29.2496 30.54 28.5696 29.62 27.9196C31.9 26.1396 35.46 26.1596 37.99 27.4696H37.98ZM26.83 34.5396C26.63 33.2296 27.56 30.7296 28.15 29.6396C28.29 29.3796 28.46 29.1396 28.63 28.9096C28.66 28.9396 28.67 28.9696 28.71 28.9896C29.7 29.6896 30.67 30.4196 31.66 31.1096C32.4 31.6296 33.23 32.0196 34 32.4896C33.74 33.3796 33.67 34.5596 33.51 35.4296C33.28 36.6596 33.14 37.9496 32.76 39.1496C32.71 39.3096 32.73 39.4496 32.77 39.5696C31.97 39.3396 31.22 38.9396 30.45 38.3896C29.29 37.5596 27.07 36.0996 26.83 34.5196V34.5396ZM40.3 37.2296C39.62 38.2996 37.12 39.2596 35.88 39.5796C35.2 39.7596 34.57 39.8196 33.97 39.7796C34.03 39.7096 34.08 39.6296 34.11 39.5296C34.72 37.5996 35.12 35.3196 35.38 33.3196C35.47 32.5896 35.29 32.8696 35.9 32.6496C36.32 32.4896 36.84 32.4396 37.28 32.3296C38.47 32.0196 39.66 31.6496 40.86 31.3996C40.87 31.3996 40.88 31.3896 40.89 31.3896C40.96 31.7696 41 32.1696 41.02 32.6196C41.06 33.7696 40.96 36.1896 40.3 37.2296Z" fill="#333333"/>
<path d="M5.02004 12.2197C4.82004 11.1097 4.63004 10.0097 4.43004 8.89969C4.19004 7.52969 3.67004 5.61969 5.72004 5.70969C6.62004 5.74969 6.62004 4.34969 5.72004 4.30969C1.13004 4.11969 3.21004 9.97969 3.67004 12.5897C3.83004 13.4797 5.18004 13.0997 5.02004 12.2197Z" fill="#333333"/>
<path d="M8.34004 5.52988C9.24004 5.52988 9.24004 4.12988 8.34004 4.12988C7.44004 4.12988 7.44004 5.52988 8.34004 5.52988Z" fill="#333333"/>
<path d="M42.42 14.9599C38.19 15.5399 34.33 15.9399 30.05 15.2699C25.67 14.5799 21.31 13.3299 16.86 13.2099C14.2 13.1399 11.5 13.3699 8.86999 13.6899C7.61999 13.8399 5.60999 13.7399 4.66999 14.6499C3.55999 15.7299 4.13999 17.3299 4.29999 18.6699C4.63999 21.4699 4.81999 24.2899 5.12999 27.0999C5.72999 32.6399 6.99999 38.0799 8.00999 43.5599C8.07999 43.9199 8.33998 44.0599 8.61999 44.0599C8.63999 44.0599 8.65998 44.0799 8.68998 44.0799C20.12 44.6199 31.65 44.5799 43.08 44.2199C43.36 44.2199 43.7 44.0099 43.75 43.7099C45.2 35.6399 45.97 27.2699 46.82 19.0999C47.24 15.0099 46.56 14.3999 42.43 14.9699L42.42 14.9599ZM45.41 19.0899C45.04 22.6999 44.5 26.3099 44.08 29.9199C43.76 32.6899 43.49 35.4599 43.16 38.2199C43.08 38.9299 42.88 42.5899 42.44 42.8299C41.94 43.0999 40.48 42.8299 39.92 42.8299C29.68 42.7599 19.5 43.1499 9.26999 42.6999C8.00999 35.8799 6.72999 29.1799 6.06999 22.2699C5.93999 20.9499 5.28998 18.8099 5.55998 17.5299C6.11998 14.8799 7.93999 15.1899 9.99999 14.9799C12.86 14.6899 15.79 14.4699 18.65 14.7499C23.61 15.2399 28.43 16.7599 33.41 17.0899C35.57 17.2299 37.71 17.1499 39.84 16.8199C40.95 16.6499 42.15 16.2699 43.28 16.2699C45.51 16.2599 45.61 17.2299 45.41 19.1099V19.0899Z" fill="#333333"/>
</svg>
