<svg width="45" height="59" viewBox="0 0 45 59" fill="none" xmlns="http://www.w3.org/2000/svg">
<g clip-path="url(#clip0_491_589)">
<path d="M12.9845 17.835C12.8445 18.175 12.9945 18.435 13.2345 18.565C13.4245 18.765 13.7145 18.845 14.0045 18.625C15.6145 17.415 17.2345 15.575 17.0245 13.405C16.8145 11.205 11.0745 6.45501 15.0745 4.89501C15.7745 4.62501 15.7345 3.51501 14.8845 3.51501C12.1545 3.51501 9.34454 4.44501 9.17454 7.57502C8.94454 11.755 14.8445 13.245 12.9745 17.835H12.9845ZM11.9645 10.555C9.98454 8.23501 10.5545 6.24501 12.4745 5.38501C12.1445 6.07501 12.0945 6.91501 12.3745 7.92501C12.6645 8.95501 13.3145 9.88501 13.9545 10.725C15.3845 12.615 15.8145 14.335 14.7345 15.945C14.7345 14.965 14.5045 13.975 14.0445 13.135C13.4945 12.115 12.6945 11.425 11.9545 10.555H11.9645Z" fill="#2D3935"/>
<path d="M22.2751 17.475C22.1351 17.815 22.2851 18.075 22.5251 18.205C22.7151 18.405 23.005 18.485 23.295 18.265C25.205 16.825 27.135 14.635 26.885 12.065C26.615 9.30499 19.465 3.61499 24.635 1.60499C25.335 1.33499 25.2951 0.234985 24.4451 0.234985C21.1951 0.244985 17.9151 1.30499 17.6751 5.00499C17.3451 10.085 24.5751 11.825 22.2751 17.475ZM20.795 8.72499C18.195 5.68499 19.1251 3.07499 21.8351 2.07499C21.2951 2.94499 21.1651 4.02499 21.555 5.39499C21.8951 6.62499 22.6751 7.72499 23.4351 8.72499C25.3251 11.225 25.805 13.505 24.125 15.625C24.195 14.305 23.9251 12.965 23.3151 11.835C22.6551 10.605 21.695 9.77499 20.805 8.73499L20.795 8.72499Z" fill="#2D3935"/>
<path d="M44.8349 38.3449C44.7949 34.9249 44.6649 29.6749 42.5549 26.8249C40.8949 24.5849 38.0149 24.6149 35.5049 24.8949C35.4449 22.8849 34.9049 21.1449 32.4149 20.7849C32.3949 20.7849 32.3749 20.7849 32.3449 20.7849C32.3049 20.7849 32.2749 20.7549 32.2249 20.7549C25.4349 20.4949 18.6449 20.4149 11.8549 20.5549C11.3449 20.5649 10.8149 20.5549 10.2749 20.5549C10.2749 20.5349 10.2749 20.5049 10.2749 20.4849C10.2749 19.5849 8.87491 19.5849 8.87491 20.4849C8.87491 20.4949 8.87491 20.5149 8.87491 20.5249C6.87491 20.4749 4.80491 20.4549 3.01491 20.8649C1.72491 21.1549 0.904907 21.8549 0.504907 23.1449C-0.255093 25.5649 0.414907 29.1249 0.424907 31.6449C0.444907 34.7349 0.464907 37.8249 0.504907 40.9149C0.554907 44.9649 -0.225093 49.9549 1.75491 53.6649C3.55491 57.0349 6.30491 58.6449 10.0549 58.6549C15.1149 58.6749 20.1649 58.7449 25.2249 58.7649C28.9849 58.7849 31.1249 57.5849 33.3349 54.4249C34.1849 53.2049 34.7049 52.0149 35.0349 50.7949C35.0849 50.8049 35.1249 50.8249 35.1749 50.8349C37.8649 50.9849 40.9049 50.3349 42.7549 48.2049C44.9249 45.7049 44.8649 41.4549 44.8349 38.3549V38.3449ZM35.5449 32.9949C38.4049 33.0049 38.5649 35.8349 38.6349 38.3449C38.7049 40.7249 38.8549 43.8649 35.6549 43.8849C35.7049 40.2549 35.6349 36.6249 35.5449 32.9949ZM34.1849 47.0449C33.9849 51.5249 31.6549 56.9649 26.5449 57.3649C21.9749 57.7249 17.2249 57.2949 12.6449 57.2649C10.4149 57.2449 7.85491 57.5749 5.89491 56.3149C3.35491 54.6749 2.20491 51.8949 2.05491 49.0149C1.78491 43.6549 1.88491 38.2349 1.84491 32.8649C1.84491 31.6249 1.83491 30.3849 1.82491 29.1349C1.82491 27.6849 1.29491 24.8249 1.86491 23.5149C2.50491 22.0549 5.99491 21.8449 8.90491 21.8749C8.95491 24.9149 9.09491 27.9549 9.08491 30.9949C7.76491 31.7849 6.50491 33.6149 5.48491 34.7449C5.33491 34.8149 5.21491 34.9549 5.18491 35.1949C4.95491 36.8749 5.03491 38.6249 5.03491 40.3249C5.03491 41.6749 4.71491 43.5949 5.17491 44.8949C5.29491 45.2149 5.51491 45.3649 5.85491 45.4049C7.21491 45.5649 8.68491 45.4149 10.0449 45.4049C11.2249 45.3849 12.7349 45.5849 13.8849 45.2449C14.2149 45.1449 14.3649 44.8849 14.3949 44.5649C14.6949 42.0049 14.8149 38.9649 14.5549 36.4049C14.4649 35.5149 14.3049 35.2949 13.6649 34.5849C12.6949 33.5149 11.6449 32.1849 10.4849 31.2449C10.4849 31.2449 10.4849 31.2349 10.4849 31.2249C10.5049 28.1149 10.3549 25.0049 10.3049 21.8949C11.2449 21.9249 12.0349 21.9549 12.5149 21.9449C19.0649 21.8149 25.6049 21.9049 32.1449 22.1549C34.7449 22.6249 33.9749 26.0449 34.0149 27.8849C34.0549 29.9249 34.1149 31.9649 34.1649 34.0049C34.2649 38.3449 34.3749 42.7049 34.1849 47.0449ZM12.9949 44.5049C12.9749 44.3949 12.9949 44.3249 13.0149 44.2649C13.0049 44.3549 12.9849 44.4349 12.9949 44.5049ZM13.0749 42.0549C13.0749 42.4549 12.8949 43.3549 12.9749 43.8549C12.0049 43.5149 9.66491 43.9949 8.72491 44.0049C8.09491 44.0049 7.21491 43.8649 6.59491 44.0049C6.84491 43.0149 6.41491 40.4849 6.42491 39.7549C6.42491 38.4149 6.35491 37.0049 6.51491 35.6649C7.18491 34.8749 9.21491 32.3449 9.57491 32.3749C10.0449 32.4149 11.3549 34.1849 11.7149 34.5649C12.9049 35.7949 13.1549 35.6749 13.1449 37.2549C13.1449 38.8549 13.1049 40.4549 13.0649 42.0449L13.0749 42.0549ZM42.6049 45.5149C41.3749 48.5749 38.3749 49.5549 35.3349 49.4249C35.5449 48.1349 35.6049 46.7749 35.6449 45.2949C39.3949 45.3349 40.1149 42.1049 40.0549 38.8249C39.9849 35.2049 39.6849 31.4949 35.5149 31.6049C35.4849 30.6349 35.4649 29.6549 35.4449 28.6849C35.4249 27.9249 35.4749 27.1149 35.5049 26.2949C39.0949 25.9149 41.2149 26.7249 42.5249 30.7949C43.2749 33.1449 43.4049 35.8849 43.4349 38.3449C43.4649 40.6849 43.4749 43.3349 42.5949 45.5149H42.6049Z" fill="#2D3935"/>
<path d="M30.7348 26.7549C29.9448 24.6349 27.4648 24.3649 25.5148 24.3049C24.6148 24.2749 24.6148 25.6749 25.5148 25.7049C26.6148 25.7349 28.1348 25.7049 28.9948 26.5849C29.7648 27.3749 29.5948 29.0049 29.6448 30.0349C29.7348 32.1049 29.7348 34.1649 29.8548 36.2349C29.9048 37.1349 31.3048 37.1349 31.2548 36.2349C31.1548 34.3149 31.1548 32.3849 31.0748 30.4549C31.0248 29.2649 31.1648 27.8749 30.7448 26.7449L30.7348 26.7549Z" fill="#2D3935"/>
<path d="M22.6848 24.325C21.7848 24.325 21.7848 25.725 22.6848 25.725C23.5848 25.725 23.5848 24.325 22.6848 24.325Z" fill="#2D3935"/>
</g>
<defs>
<clipPath id="clip0_491_589">
<rect width="44.69" height="58.53" fill="white" transform="translate(0.155273 0.234985)"/>
</clipPath>
</defs>
</svg>
