<svg width="27" height="24" viewBox="0 0 27 24" fill="none" xmlns="http://www.w3.org/2000/svg">
<path d="M15.1042 12.2428C15.0978 12.5596 14.9919 12.8674 14.7998 13.1274C14.6077 13.3873 14.3381 13.5875 14.0253 13.7028C13.7124 13.818 13.3703 13.843 13.0424 13.7746C12.7144 13.7062 12.4154 13.5475 12.1831 13.3186C11.9509 13.0897 11.796 12.8009 11.7379 12.4888C11.6799 12.1767 11.7214 11.8554 11.8571 11.5656C11.9929 11.2758 12.2168 11.0305 12.5004 10.8609C12.7841 10.6913 13.1148 10.6049 13.4506 10.6128C13.8967 10.6284 14.3189 10.8073 14.6276 11.1116C14.9363 11.4159 15.1073 11.8216 15.1042 12.2428Z" fill="white"/>
<path d="M16.3264 7.23291H10.5757C10.0067 7.23291 9.46095 7.44615 9.05858 7.82573C8.65622 8.2053 8.43018 8.72011 8.43018 9.25691V14.8039C8.43018 15.0697 8.48567 15.3329 8.59349 15.5785C8.70132 15.824 8.85935 16.0471 9.05858 16.2351C9.25781 16.423 9.49433 16.5721 9.75464 16.6738C10.0149 16.7756 10.2939 16.8279 10.5757 16.8279H16.3264C16.6081 16.8279 16.8871 16.7756 17.1474 16.6738C17.4078 16.5721 17.6443 16.423 17.8435 16.2351C18.0427 16.0471 18.2008 15.824 18.3086 15.5785C18.4164 15.3329 18.4719 15.0697 18.4719 14.8039V9.26691C18.473 9.00035 18.4184 8.7362 18.3111 8.4896C18.2038 8.243 18.046 8.0188 17.8466 7.82985C17.6473 7.64089 17.4104 7.4909 17.1496 7.38847C16.8887 7.28603 16.609 7.23317 16.3264 7.23291ZM13.4505 14.9559C12.8812 14.968 12.321 14.8199 11.8414 14.5303C11.3618 14.2408 10.9845 13.823 10.7577 13.3303C10.5309 12.8376 10.4648 12.2923 10.568 11.764C10.6711 11.2357 10.9388 10.7484 11.3368 10.3642C11.7348 9.98008 12.2451 9.71652 12.8027 9.60718C13.3602 9.49785 13.9395 9.54769 14.4669 9.75036C14.9942 9.95303 15.4456 10.2993 15.7634 10.7451C16.0812 11.1908 16.251 11.7157 16.2511 12.2529C16.2558 12.604 16.1869 12.9524 16.0486 13.2784C15.9103 13.6043 15.7052 13.9013 15.4451 14.1524C15.1849 14.4034 14.8749 14.6036 14.5326 14.7415C14.1904 14.8794 13.8227 14.9523 13.4505 14.9559ZM16.5628 9.55091C16.4928 9.55092 16.4236 9.53777 16.3591 9.51222C16.2946 9.48667 16.2362 9.44924 16.1872 9.40212C16.1382 9.355 16.0997 9.29913 16.0739 9.23779C16.0482 9.17646 16.0356 9.11088 16.037 9.04491C16.037 8.91071 16.0935 8.78201 16.1941 8.68711C16.2947 8.59222 16.4311 8.53891 16.5734 8.53891C16.7156 8.53891 16.8521 8.59222 16.9527 8.68711C17.0533 8.78201 17.1098 8.91071 17.1098 9.04491C17.1119 9.11635 17.0976 9.18737 17.0679 9.25311C17.0382 9.31886 16.9938 9.37778 16.9377 9.42583C16.8817 9.47388 16.8152 9.50994 16.743 9.53153C16.6708 9.55311 16.5945 9.55973 16.5193 9.55091H16.5628Z" fill="white"/>
<path d="M13.4509 2.00013C10.6395 1.98686 7.93765 3.02771 5.93975 4.8937C3.94186 6.75969 2.81155 9.29796 2.7975 11.9501C2.78344 14.6023 3.88678 17.1511 5.8648 19.0358C7.84281 20.9206 10.5335 21.9869 13.3449 22.0001C14.7369 22.0067 16.1167 21.7545 17.4055 21.2581C18.6943 20.7616 19.8667 20.0305 20.856 19.1065C21.8452 18.1826 22.6319 17.0839 23.1711 15.8732C23.7102 14.6624 23.9913 13.3633 23.9982 12.0501C24.0052 10.7369 23.7379 9.43525 23.2116 8.21948C22.6853 7.00372 21.9104 5.89764 20.9309 4.96441C19.9515 4.03118 18.7869 3.28908 17.5034 2.78046C16.22 2.27185 14.8429 2.00669 13.4509 2.00013ZM19.8885 14.7021C19.8914 15.1508 19.8 15.5955 19.6194 16.0105C19.4388 16.4256 19.1726 16.8026 18.8364 17.1199C18.5002 17.4372 18.1005 17.6884 17.6606 17.8589C17.2207 18.0294 16.7493 18.1158 16.2738 18.1131H10.6301C10.1545 18.1159 9.68312 18.0296 9.24317 17.8593C8.80322 17.6889 8.40349 17.4378 8.06715 17.1206C7.73082 16.8034 7.46457 16.4264 7.28385 16.0114C7.10312 15.5965 7.01151 15.1518 7.01433 14.7031V9.37813C7.01137 8.92949 7.10284 8.48477 7.28344 8.06973C7.46404 7.6547 7.73017 7.27761 8.0664 6.96033C8.40264 6.64304 8.80229 6.39187 9.24219 6.22138C9.68209 6.05089 10.1535 5.96447 10.6291 5.96713H16.2738C16.7492 5.96447 17.2205 6.05086 17.6604 6.22129C18.1002 6.39172 18.4998 6.6428 18.836 6.95997C19.1722 7.27715 19.4384 7.65412 19.6191 8.06904C19.7997 8.48396 19.8913 8.92858 19.8885 9.37713V14.7021Z" fill="white"/>
</svg>
