<svg width="27" height="24" viewBox="0 0 27 24" fill="none" xmlns="http://www.w3.org/2000/svg">
<path d="M15.1047 12.2428C15.0983 12.5596 14.9923 12.8674 14.8003 13.1274C14.6082 13.3873 14.3386 13.5875 14.0257 13.7028C13.7129 13.818 13.3708 13.843 13.0428 13.7746C12.7149 13.7062 12.4159 13.5475 12.1836 13.3186C11.9514 13.0897 11.7965 12.8009 11.7384 12.4888C11.6804 12.1767 11.7218 11.8554 11.8576 11.5656C11.9933 11.2758 12.2173 11.0305 12.5009 10.8609C12.7846 10.6913 13.1153 10.6049 13.451 10.6128C13.8972 10.6284 14.3194 10.8073 14.6281 11.1116C14.9368 11.4159 15.1078 11.8216 15.1047 12.2428Z" fill="#232A28"/>
<path d="M16.3269 7.23291H10.5762C10.0072 7.23291 9.46143 7.44615 9.05907 7.82573C8.65671 8.2053 8.43066 8.72011 8.43066 9.25691V14.8039C8.43066 15.0697 8.48616 15.3329 8.59398 15.5785C8.7018 15.824 8.85984 16.0471 9.05907 16.2351C9.2583 16.423 9.49482 16.5721 9.75513 16.6738C10.0154 16.7756 10.2944 16.8279 10.5762 16.8279H16.3269C16.6086 16.8279 16.8876 16.7756 17.1479 16.6738C17.4082 16.5721 17.6448 16.423 17.844 16.2351C18.0432 16.0471 18.2013 15.824 18.3091 15.5785C18.4169 15.3329 18.4724 15.0697 18.4724 14.8039V9.26691C18.4735 9.00035 18.4189 8.7362 18.3116 8.4896C18.2043 8.243 18.0464 8.0188 17.8471 7.82985C17.6478 7.64089 17.4109 7.4909 17.1501 7.38847C16.8892 7.28603 16.6095 7.23317 16.3269 7.23291ZM13.451 14.9559C12.8817 14.968 12.3215 14.8199 11.8419 14.5303C11.3623 14.2408 10.985 13.823 10.7582 13.3303C10.5314 12.8376 10.4653 12.2923 10.5685 11.764C10.6716 11.2357 10.9393 10.7484 11.3373 10.3642C11.7353 9.98008 12.2456 9.71652 12.8031 9.60718C13.3606 9.49785 13.94 9.54769 14.4674 9.75036C14.9947 9.95303 15.4461 10.2993 15.7639 10.7451C16.0817 11.1908 16.2515 11.7157 16.2516 12.2529C16.2562 12.604 16.1874 12.9524 16.0491 13.2784C15.9108 13.6043 15.7057 13.9013 15.4456 14.1524C15.1854 14.4034 14.8754 14.6036 14.5331 14.7415C14.1909 14.8794 13.8231 14.9523 13.451 14.9559ZM16.5633 9.55091C16.4933 9.55092 16.4241 9.53777 16.3596 9.51222C16.2951 9.48667 16.2367 9.44924 16.1877 9.40212C16.1387 9.355 16.1002 9.29913 16.0744 9.23779C16.0486 9.17646 16.0361 9.11088 16.0375 9.04491C16.0375 8.91071 16.094 8.78201 16.1946 8.68711C16.2952 8.59222 16.4316 8.53891 16.5739 8.53891C16.7161 8.53891 16.8526 8.59222 16.9531 8.68711C17.0537 8.78201 17.1103 8.91071 17.1103 9.04491C17.1124 9.11635 17.0981 9.18737 17.0684 9.25311C17.0387 9.31886 16.9943 9.37778 16.9382 9.42583C16.8821 9.47388 16.8157 9.50994 16.7435 9.53153C16.6713 9.55311 16.595 9.55973 16.5198 9.55091H16.5633Z" fill="#232A28"/>
<path d="M13.4514 2.00013C10.64 1.98686 7.93814 3.02771 5.94024 4.8937C3.94234 6.75969 2.81204 9.29796 2.79798 11.9501C2.78393 14.6023 3.88727 17.1511 5.86528 19.0358C7.8433 20.9206 10.534 21.9869 13.3454 22.0001C14.7374 22.0067 16.1172 21.7545 17.406 21.2581C18.6947 20.7616 19.8672 20.0305 20.8565 19.1065C21.8457 18.1826 22.6324 17.0839 23.1715 15.8732C23.7107 14.6624 23.9918 13.3633 23.9987 12.0501C24.0057 10.7369 23.7384 9.43525 23.2121 8.21948C22.6858 7.00372 21.9108 5.89764 20.9314 4.96441C19.952 4.03118 18.7873 3.28908 17.5039 2.78046C16.2205 2.27185 14.8434 2.00669 13.4514 2.00013ZM19.889 14.7021C19.8919 15.1508 19.8004 15.5955 19.6199 16.0105C19.4393 16.4256 19.1731 16.8026 18.8369 17.1199C18.5007 17.4372 18.101 17.6884 17.6611 17.8589C17.2212 18.0294 16.7498 18.1158 16.2742 18.1131H10.6306C10.155 18.1159 9.68361 18.0296 9.24366 17.8593C8.80371 17.6889 8.40398 17.4378 8.06764 17.1206C7.73131 16.8034 7.46506 16.4264 7.28434 16.0114C7.10361 15.5965 7.012 15.1518 7.01481 14.7031V9.37813C7.01186 8.92949 7.10333 8.48477 7.28393 8.06973C7.46453 7.6547 7.73066 7.27761 8.06689 6.96033C8.40313 6.64304 8.80278 6.39187 9.24268 6.22138C9.68258 6.05089 10.154 5.96447 10.6295 5.96713H16.2742C16.7497 5.96447 17.221 6.05086 17.6609 6.22129C18.1007 6.39172 18.5003 6.6428 18.8365 6.95997C19.1727 7.27715 19.4389 7.65412 19.6195 8.06904C19.8002 8.48396 19.8918 8.92858 19.889 9.37713V14.7021Z" fill="#232A28"/>
</svg>
