<svg width="20" height="20" viewBox="0 0 20 20" fill="none" xmlns="http://www.w3.org/2000/svg">
<path d="M9.99989 15.8332C10.204 15.8332 10.401 15.9081 10.5535 16.0438C10.7061 16.1794 10.8035 16.3663 10.8274 16.569L10.8332 16.6665V17.4998C10.833 17.7122 10.7517 17.9165 10.6059 18.071C10.46 18.2254 10.2608 18.3184 10.0487 18.3308C9.83669 18.3433 9.62791 18.2743 9.46503 18.1379C9.30215 18.0016 9.19748 17.8083 9.17239 17.5973L9.16656 17.4998V16.6665C9.16656 16.4455 9.25435 16.2335 9.41063 16.0772C9.56692 15.921 9.77888 15.8332 9.99989 15.8332ZM15.2607 14.0915L15.3391 14.1607L15.9224 14.744C16.0718 14.894 16.1586 15.0952 16.1651 15.3068C16.1715 15.5184 16.0972 15.7246 15.9572 15.8834C15.8172 16.0422 15.6219 16.1418 15.4112 16.1618C15.2004 16.1819 14.9899 16.121 14.8224 15.9915L14.7441 15.9223L14.1607 15.339C14.0169 15.1954 13.9305 15.0043 13.9178 14.8015C13.905 14.5987 13.9668 14.3983 14.0915 14.2378C14.2162 14.0774 14.3952 13.9681 14.5949 13.9304C14.7946 13.8927 15.0011 13.9292 15.1757 14.0332L15.2607 14.0915ZM5.83906 14.1607C5.98254 14.3042 6.06873 14.4951 6.08146 14.6976C6.0942 14.9001 6.0326 15.1003 5.90822 15.2607L5.83906 15.339L5.25572 15.9223C5.10576 16.0718 4.90453 16.1586 4.6929 16.165C4.48128 16.1715 4.27513 16.0972 4.11633 15.9571C3.95752 15.8171 3.85797 15.6219 3.83789 15.4111C3.81781 15.2003 3.87871 14.9898 4.00822 14.8223L4.07739 14.744L4.66072 14.1607C4.817 14.0044 5.02892 13.9167 5.24989 13.9167C5.47086 13.9167 5.68278 14.0044 5.83906 14.1607ZM3.33322 9.1665C3.54562 9.16674 3.74992 9.24807 3.90436 9.39388C4.05881 9.53968 4.15175 9.73897 4.1642 9.951C4.17665 10.163 4.10766 10.3718 3.97134 10.5347C3.83501 10.6976 3.64164 10.8023 3.43072 10.8273L3.33322 10.8332H2.49989C2.28749 10.8329 2.0832 10.7516 1.92875 10.6058C1.7743 10.46 1.68136 10.2607 1.66891 10.0487C1.65647 9.83664 1.72545 9.62785 1.86178 9.46498C1.9981 9.3021 2.19148 9.19742 2.40239 9.17234L2.49989 9.1665H3.33322ZM17.4999 9.1665C17.7123 9.16674 17.9166 9.24807 18.071 9.39388C18.2255 9.53968 18.3184 9.73897 18.3309 9.951C18.3433 10.163 18.2743 10.3718 18.138 10.5347C18.0017 10.6976 17.8083 10.8023 17.5974 10.8273L17.4999 10.8332H16.6666C16.4542 10.8329 16.2499 10.7516 16.0954 10.6058C15.941 10.46 15.848 10.2607 15.8356 10.0487C15.8231 9.83664 15.8921 9.62785 16.0284 9.46498C16.1648 9.3021 16.3581 9.19742 16.5691 9.17234L16.6666 9.1665H17.4999ZM5.17739 4.00817L5.25572 4.07734L5.83906 4.66067C5.98851 4.81064 6.07529 5.01187 6.08175 5.22349C6.08821 5.43512 6.01388 5.64126 5.87385 5.80007C5.73382 5.95887 5.5386 6.05842 5.32783 6.0785C5.11706 6.09858 4.90655 6.03768 4.73906 5.90817L4.66072 5.839L4.07739 5.25567C3.93413 5.11207 3.84817 4.92115 3.83561 4.7187C3.82306 4.51625 3.88477 4.31617 4.00919 4.15597C4.13361 3.99577 4.31219 3.88644 4.51145 3.8485C4.71071 3.81055 4.91697 3.84658 5.09156 3.94984L5.17739 4.00817ZM15.9224 4.07734C16.0659 4.22083 16.1521 4.41175 16.1648 4.61427C16.1775 4.81679 16.1159 5.017 15.9916 5.17734L15.9224 5.25567L15.3391 5.839C15.1891 5.98846 14.9879 6.07523 14.7762 6.08169C14.5646 6.08816 14.3585 6.01382 14.1997 5.8738C14.0409 5.73377 13.9413 5.53854 13.9212 5.32778C13.9011 5.11701 13.962 4.9065 14.0916 4.739L14.1607 4.66067L14.7441 4.07734C14.9003 3.92111 15.1123 3.83335 15.3332 3.83335C15.5542 3.83335 15.7661 3.92111 15.9224 4.07734ZM9.99989 1.6665C10.204 1.66653 10.401 1.74147 10.5535 1.8771C10.7061 2.01273 10.8035 2.19963 10.8274 2.40234L10.8332 2.49984V3.33317C10.833 3.54557 10.7517 3.74986 10.6059 3.90431C10.46 4.05876 10.2608 4.1517 10.0487 4.16415C9.83669 4.17659 9.62791 4.10761 9.46503 3.97128C9.30215 3.83496 9.19748 3.64158 9.17239 3.43067L9.16656 3.33317V2.49984C9.16656 2.27882 9.25435 2.06686 9.41063 1.91058C9.56692 1.7543 9.77888 1.6665 9.99989 1.6665ZM9.99989 5.83317C10.8163 5.83312 11.6147 6.07291 12.296 6.52275C12.9773 6.97259 13.5114 7.61267 13.832 8.36347C14.1526 9.11427 14.2456 9.94273 14.0995 10.7459C13.9533 11.5491 13.5743 12.2917 13.0097 12.8814C12.4452 13.4711 11.7198 13.8819 10.9237 14.0629C10.1276 14.2438 9.29586 14.1869 8.53184 13.8992C7.76781 13.6115 7.10513 13.1057 6.62611 12.4446C6.14708 11.7835 5.87282 10.9963 5.83739 10.1807L5.83322 9.99984L5.83739 9.819C5.88399 8.7463 6.3429 7.73299 7.11841 6.99039C7.89392 6.24779 8.92617 5.83323 9.99989 5.83317Z" fill="white"/>
</svg>
